<?xml version="1.0" encoding="utf-8"?>
<!-- Generator: Adobe Illustrator 16.0.0, SVG Export Plug-In . SVG Version: 6.00 Build 0)  -->
<!DOCTYPE svg PUBLIC "-//W3C//DTD SVG 1.1//EN" "http://www.w3.org/Graphics/SVG/1.1/DTD/svg11.dtd">
<svg version="1.1" id="Layer_1" xmlns="http://www.w3.org/2000/svg" xmlns:xlink="http://www.w3.org/1999/xlink" x="0px" y="0px"
	 width="156px" height="287px" viewBox="0 0 156 287" enable-background="new 0 0 156 287" xml:space="preserve">
<g>
	<path fill="#2BB673" d="M155.697,93.49c0.059-0.321,0.083-1.012-0.052-1.311c-0.189-0.423-0.936-1.052-1.336-1.286
		c-0.275-0.16-0.905-0.332-1.223-0.365c-0.255-0.028-0.78,0.164-1.021,0.076c-0.225-0.082-0.548-0.471-0.68-0.668
		c-0.214-0.316-0.396-1.078-0.581-1.412c-0.155-0.28-0.71-0.728-0.743-1.047c-0.03-0.278,0.286-0.798,0.44-1.033
		c0.101-0.152,0.491-0.348,0.505-0.529c0.014-0.177-0.25-0.492-0.403-0.579c-0.388-0.22-1.339-0.044-1.777-0.126
		c-0.39-0.073-1.146-0.316-1.513-0.468c-0.325-0.132-0.91-0.546-1.248-0.643c-0.173-0.049-0.455-0.028-0.734-0.02
		c-0.283,0.009-0.561,0.006-0.715-0.093c-0.295-0.189-0.594-0.884-0.68-1.223c-0.088-0.333,0.124-1.055,0-1.375
		c-0.067-0.169-0.273-0.375-0.475-0.562c-0.142-0.131-0.281-0.252-0.371-0.345c-0.296-0.305-0.904-0.901-1.21-1.197
		c-0.165-0.16-0.543-0.437-0.668-0.63c-0.168-0.26-0.235-0.911-0.403-1.173c-0.152-0.236-0.596-0.598-0.818-0.768
		c-0.233-0.179-0.816-0.387-0.997-0.618c-0.232-0.3-0.437-1.07-0.453-1.449c-0.019-0.413,0.278-1.208,0.353-1.613
		c0.062-0.332,0.248-1.002,0.202-1.336c-0.044-0.316-0.507-0.842-0.529-1.16c-0.007-0.083,0.013-0.181,0.044-0.289
		c0.106-0.361,0.365-0.82,0.359-1.098c-0.008-0.348-0.386-0.979-0.441-1.323c-0.058-0.354-0.053-1.082,0-1.437
		c0.047-0.31,0.236-0.912,0.365-1.198c0.159-0.353,0.707-0.949,0.807-1.323c0.169-0.631-0.125-1.96-0.062-2.608
		c0.02-0.206,0.188-0.601,0.176-0.807c-0.033-0.576-0.43-1.706-0.756-2.181c-0.24-0.35-0.985-0.81-1.299-1.097
		c-0.193-0.179-0.535-0.582-0.743-0.743c-0.349-0.271-1.146-0.669-1.524-0.896c-0.396-0.238-1.173-0.745-1.576-0.971
		c-0.259-0.146-0.837-0.344-1.059-0.541c-0.252-0.227-0.575-0.841-0.743-1.136c-0.153-0.264-0.386-0.834-0.542-1.096
		c-0.197-0.328-0.558-1.048-0.883-1.247c-0.22-0.137-0.812,0.001-1.021-0.152c-0.321-0.235-0.531-1.073-0.693-1.437
		c-0.17-0.388-0.367-1.178-0.613-1.632c-0.038-0.07-0.076-0.132-0.117-0.184c-0.223-0.284-0.957-0.554-1.172-0.845
		c-0.146-0.195-0.209-0.701-0.315-0.92c-0.167-0.342-0.652-0.938-0.832-1.273c-0.14-0.26-0.331-0.821-0.466-1.083
		c-0.182-0.353-0.532-1.087-0.82-1.361c-0.279-0.268-0.975-0.757-1.361-0.731c-0.24,0.016-0.592,0.416-0.78,0.567
		c-0.21,0.167-0.554,0.794-0.808,0.705c-0.148-0.051-0.033-0.481-0.113-0.617c-0.128-0.218-0.543-0.556-0.781-0.643
		c-0.234-0.086-0.747-0.02-0.996-0.013c-0.231,0.006-0.707,0.135-0.926,0.056c-0.242-0.085-0.534-0.567-0.756-0.698
		c-0.254-0.147-0.841-0.26-1.116-0.359c-0.321-0.115-0.935-0.432-1.267-0.511c-0.221-0.052-0.68-0.063-0.907-0.076
		c-0.241-0.011-0.733,0.049-0.965-0.019c-0.217-0.063-0.548-0.458-0.774-0.472c-0.207-0.014-0.558,0.282-0.756,0.339
		c-0.275,0.082-0.881,0.037-1.135,0.172c-0.24,0.127-0.614,0.551-0.737,0.793c-0.077,0.15-0.181,0.5-0.133,0.662
		c0.075,0.25,0.633,0.498,0.737,0.736c0.092,0.209,0.195,0.745,0.037,0.908c-0.277,0.291-1.217-0.102-1.605,0
		c-0.3,0.078-0.912,0.345-1.078,0.605c-0.189,0.295,0.113,1.131-0.113,1.397c-0.148,0.177-0.703,0.095-0.889,0.228
		c-0.164,0.118-0.387,0.484-0.436,0.682c-0.041,0.166,0.062,0.51,0.057,0.68c-0.01,0.287-0.045,0.876-0.17,1.135
		c-0.105,0.22-0.42,0.684-0.661,0.719c-0.276,0.041-0.685-0.567-0.965-0.567c-0.241,0-0.601,0.421-0.831,0.491
		c-0.231,0.071-0.744-0.04-0.965,0.058c-0.277,0.124-0.613,0.688-0.869,0.85c-0.264,0.169-0.953,0.212-1.173,0.436
		c-0.13,0.132-0.092,0.597-0.245,0.699c-0.143,0.095-0.511-0.043-0.682-0.038c-0.185,0.007-0.609-0.039-0.736,0.096
		c-0.086,0.089-0.062,0.37-0.039,0.491c0.041,0.203,0.438,0.538,0.379,0.737c-0.043,0.14-0.365,0.303-0.51,0.283
		c-0.184-0.023-0.365-0.428-0.53-0.51c-0.103-0.052-0.356-0.014-0.454-0.076c-0.143-0.092-0.359-0.398-0.378-0.567
		c-0.028-0.268,0.38-0.733,0.397-1.001c0.016-0.248-0.061-0.801-0.246-0.965c-0.373-0.333-1.485-0.282-1.984-0.266
		c-0.353,0.014-1.062,0.435-1.381,0.284c-0.328-0.155-0.369-1.099-0.681-1.286c-0.312-0.187-1.144,0.187-1.456,0
		c-0.35-0.209-0.504-1.133-0.774-1.437c-0.312-0.349-1.272-0.688-1.532-1.076c-0.123-0.187-0.047-0.699-0.189-0.871
		c-0.112-0.138-0.383-0.271-0.639-0.356c-0.15-0.051-0.295-0.086-0.4-0.098c-0.335-0.035-1.053,0.062-1.323,0.266
		c-0.211,0.156-0.37,0.694-0.491,0.927c-0.106,0.202-0.266,0.642-0.417,0.812c-0.227,0.257-0.884,0.538-1.134,0.774
		c-0.253,0.238-0.511,1.026-0.852,1.097c-0.415,0.088-1.08-0.713-1.493-0.812c-0.197-0.048-0.661-0.116-0.812,0.019
		c-0.219,0.193-0.048,0.889-0.171,1.154c-0.041,0.091-0.229,0.208-0.265,0.302c-0.107,0.293,0.192,0.987,0.02,1.247
		c-0.166,0.252-0.82,0.395-1.116,0.455c-0.203,0.042-0.627-0.02-0.831,0.019c-0.311,0.056-0.986,0.175-1.191,0.416
		c-0.137,0.16-0.2,0.627-0.151,0.831c0.04,0.168,0.361,0.385,0.416,0.549c0.059,0.174,0.142,0.619,0,0.737
		c-0.225,0.187-0.871-0.286-1.153-0.208c-0.249,0.068-0.543,0.57-0.775,0.682c-0.246,0.117-0.83,0.071-1.077,0.188
		c-0.271,0.127-0.703,0.559-0.908,0.774c-0.268,0.285-0.618,1.033-0.945,1.248c-0.183,0.12-0.688,0.061-0.851,0.209
		c-0.256,0.232-0.181,1.091-0.454,1.303c-0.175,0.138-0.7-0.042-0.889,0.077c-0.228,0.143-0.361,0.732-0.548,0.927
		c-0.187,0.193-0.641,0.631-0.907,0.586c-0.326-0.056-0.568-0.82-0.813-1.04c-0.307-0.276-0.995-0.791-1.399-0.871
		c-0.283-0.056-0.854,0.253-1.134,0.188c-0.212-0.046-0.59-0.26-0.778-0.47c-0.041-0.045-0.072-0.09-0.092-0.134
		c-0.06-0.135-0.008-0.465,0.076-0.586c0.173-0.254,0.919-0.323,1.077-0.586c0.108-0.18,0.017-0.552-0.017-0.867
		c-0.018-0.168-0.019-0.321,0.036-0.419c0.058-0.102,0.352-0.138,0.397-0.246c0.08-0.187-0.239-0.603-0.17-0.794
		c0.059-0.165,0.522-0.262,0.548-0.435c0.028-0.182-0.464-0.429-0.416-0.604c0.069-0.251,0.837-0.199,0.945-0.436
		c0.101-0.219-0.332-0.695-0.265-0.926c0.078-0.267,0.597-0.59,0.832-0.738c0.183-0.115,0.668-0.164,0.794-0.34
		c0.164-0.227-0.048-0.875,0.094-1.115c0.17-0.287,0.868-0.513,1.116-0.737c0.139-0.127,0.485-0.398,0.473-0.587
		c-0.018-0.279-0.731-0.506-0.813-0.774c-0.071-0.231,0.068-0.748,0.208-0.946c0.068-0.095,0.315-0.163,0.397-0.244
		c0.141-0.143,0.489-0.496,0.416-0.682c-0.107-0.269-0.916-0.094-1.116-0.303c-0.222-0.23-0.424-0.96-0.283-1.247
		c0.094-0.192,0.624-0.208,0.775-0.359c0.125-0.125,0.384-0.485,0.303-0.643c-0.154-0.3-1.076-0.019-1.324-0.246
		c-0.119-0.109-0.078-0.491-0.17-0.624c-0.04-0.057-0.106-0.112-0.188-0.165c-0.274-0.179-0.711-0.338-0.813-0.554
		c-0.095-0.2-0.061-0.699,0.057-0.888c0.107-0.171,0.586-0.231,0.699-0.397c0.114-0.166-0.039-0.664,0.114-0.795
		c0.15-0.131,0.641,0.126,0.794,0c0.075-0.061,0.016-0.302,0.076-0.377c0.155-0.195,0.82-0.182,0.907-0.417
		c0.091-0.243-0.555-0.714-0.435-0.944c0.087-0.166,0.564-0.063,0.738-0.133c0.189-0.077,0.566-0.284,0.68-0.453
		c0.141-0.209,0.34-0.77,0.208-0.984c-0.117-0.189-0.739-0.043-0.87-0.227c-0.116-0.161-0.043-0.622,0.057-0.794
		c0.109-0.185,0.656-0.267,0.719-0.473c0.071-0.234-0.39-0.661-0.379-0.907c0.007-0.15,0.261-0.381,0.284-0.529
		c0.028-0.176-0.211-0.54-0.132-0.7c0.042-0.084,0.28-0.096,0.34-0.17c0.115-0.14,0.059-0.574,0.189-0.699
		c0.063-0.06,0.282-0.011,0.34-0.075c0.189-0.213-0.058-0.906,0.114-1.135c0.101-0.133,0.501-0.131,0.624-0.246
		c0.158-0.146,0.365-0.56,0.378-0.775c0.013-0.204-0.123-0.628-0.265-0.774c-0.211-0.22-0.905-0.236-1.134-0.435
		c-0.293-0.257-0.738-0.972-0.756-1.361c-0.014-0.283,0.472-0.758,0.454-1.04c-0.022-0.33-0.648-0.805-0.681-1.135
		c-0.028-0.278,0.522-0.817,0.378-1.059c-0.099-0.164-0.654,0.049-0.756-0.113c-0.129-0.205,0.272-0.685,0.283-0.927
		c0.016-0.347-0.435-1.049-0.283-1.361c0.139-0.285,0.923-0.33,1.134-0.566c0.138-0.155,0.277-0.57,0.284-0.776
		c0.009-0.27-0.144-0.819-0.303-1.04c-0.151-0.209-0.597-0.636-0.851-0.586c-0.315,0.062-0.411,0.937-0.699,1.078
		c-0.26,0.128-0.911,0.063-1.154-0.095c-0.131-0.085-0.182-0.448-0.302-0.548c-0.234-0.193-0.861-0.295-1.153-0.378
		c-0.276-0.077-0.833-0.22-1.116-0.265c-0.389-0.062-1.21-0.293-1.569-0.133c-0.619,0.278-1.168,1.673-1.626,2.174
		c-0.176,0.194-0.514,0.71-0.775,0.699c-0.253-0.008-0.494-0.588-0.699-0.736c-0.268-0.193-0.866-0.513-1.191-0.567
		c-0.211-0.036-0.667-0.015-0.85,0.095c-0.278,0.164-0.415,1.066-0.738,1.06c-0.022-0.001-0.042-0.01-0.059-0.024
		c-0.129-0.106-0.171-0.531-0.319-0.581c-0.163-0.055-0.472,0.262-0.643,0.245c-0.161-0.015-0.458-0.205-0.548-0.339
		c-0.204-0.304-0.007-1.163-0.246-1.438c-0.11-0.127-0.543-0.07-0.643-0.207c-0.158-0.219,0.084-0.822,0-1.078
		c-0.093-0.283-0.625-0.661-0.739-0.964c-0.007-0.02-0.013-0.038-0.017-0.058c-0.049-0.249,0.196-0.734,0.246-0.982
		c0.031-0.154,0.012-0.489,0.094-0.625c0.113-0.183,0.604-0.315,0.7-0.51c0.087-0.178-0.159-0.654-0.019-0.794
		c0.173-0.175,0.806,0.188,0.983,0.019c0.14-0.133-0.013-0.584,0.019-0.775c0.044-0.269,0.283-0.77,0.321-1.04
		c0.038-0.262-0.111-0.81-0.019-1.058c0.129-0.346,0.819-0.768,0.984-1.096c0.131-0.264,0.322-0.876,0.227-1.154
		c-0.077-0.225-0.481-0.607-0.718-0.624c-0.113-0.009-0.272,0.207-0.378,0.246c-0.166,0.059-0.549,0.167-0.7,0.075
		c-0.125-0.076-0.118-0.432-0.208-0.549c-0.131-0.168-0.584-0.311-0.7-0.492c-0.07-0.108-0.015-0.408-0.094-0.508
		c-0.112-0.146-0.564-0.15-0.663-0.305c-0.102-0.158,0.071-0.58,0-0.755c-0.091-0.227-0.577-0.479-0.68-0.7
		c-0.122-0.263,0.055-0.916-0.113-1.153c-0.184-0.259-0.838-0.491-1.153-0.53c-0.229-0.027-0.706,0.059-0.908,0.172
		c-0.179,0.1-0.469,0.416-0.549,0.604c-0.078,0.183,0.083,0.652-0.056,0.794c-0.11,0.112-0.475,0.01-0.624,0.056
		c-0.167,0.055-0.553,0.192-0.605,0.359c-0.057,0.185,0.28,0.513,0.321,0.7c0.033,0.148,0.109,0.5,0,0.605
		c-0.214,0.206-0.952,0.14-1.191-0.039c-0.206-0.154-0.34-0.725-0.321-0.982c0.016-0.221,0.393-0.572,0.397-0.794
		c0.006-0.273-0.231-0.833-0.447-1.002c-0.303-0.237-1.245-0.001-1.513-0.278c-0.115-0.117-0.011-0.516-0.101-0.654
		c-0.143-0.223-0.623-0.534-0.882-0.58c-0.288-0.051-0.866,0.164-1.134,0.277c-0.261,0.111-0.798,0.372-0.958,0.605
		c-0.146,0.212-0.084,0.778-0.202,1.008c-0.114,0.222-0.432,0.706-0.681,0.731c-0.185,0.019-0.425-0.383-0.605-0.429
		c-0.154-0.039-0.478,0.033-0.63,0.075c-0.321,0.091-0.893,0.655-1.209,0.556c-0.181-0.059-0.196-0.606-0.379-0.656
		c-0.173-0.048-0.461,0.418-0.63,0.354c-0.111-0.043-0.062-0.376-0.151-0.455c-0.15-0.131-0.6-0.07-0.782-0.15
		c-0.273-0.119-0.683-0.594-0.958-0.705c-0.254-0.105-0.916-0.367-1.084-0.151c-0.146,0.187,0.206,0.694,0.353,0.882
		c0.12,0.152,0.542,0.28,0.63,0.453c0.155,0.302-0.148,1.055,0,1.361C41,3.639,41.829,3.871,41.955,4.202
		c0.08,0.209-0.014,0.705-0.151,0.883c-0.177,0.228-0.824,0.307-1.059,0.478c-0.104,0.077-0.222,0.244-0.341,0.401
		c-0.106,0.142-0.213,0.274-0.315,0.33c-0.162,0.09-0.552,0.077-0.731,0.127c-0.221,0.061-0.634,0.276-0.857,0.327
		c-0.302,0.069-0.954,0.231-1.235,0.101C37,6.725,36.845,6.03,36.586,5.891c-0.189-0.102-0.651,0.035-0.857-0.024
		c-0.176-0.052-0.447-0.364-0.63-0.378c-0.353-0.028-0.968,0.444-1.311,0.528c-0.239,0.06-0.815-0.08-0.983,0.101
		c-0.171,0.186,0.149,0.827-0.025,1.009c-0.065,0.069-0.319-0.049-0.377,0.026c-0.139,0.176,0.202,0.664,0.151,0.882
		c-0.046,0.197-0.444,0.455-0.479,0.655c-0.03,0.175,0.201,0.502,0.202,0.68c0,0.184-0.211,0.522-0.202,0.707
		c0.011,0.224,0.35,0.608,0.328,0.831c-0.02,0.194-0.323,0.491-0.429,0.656c-0.146,0.226-0.331,0.803-0.58,0.906
		c-0.167,0.069-0.53-0.191-0.706-0.151c-0.297,0.069-0.668,0.856-0.958,0.758c-0.246-0.084-0.075-0.819-0.252-1.009
		c-0.235-0.252-0.993-0.562-1.311-0.43c-0.359,0.149-0.367,1.195-0.706,1.388c-0.242,0.137-0.833-0.049-1.109-0.077
		c-0.348-0.033-1.066-0.314-1.386-0.176c-0.208,0.09-0.329,0.629-0.53,0.73c-0.129,0.066-0.452-0.067-0.58,0
		c-0.168,0.09-0.243,0.592-0.429,0.631c-0.349,0.074-0.864-0.842-1.209-0.757c-0.197,0.05-0.214,0.632-0.404,0.707
		c-0.187,0.073-0.508-0.147-0.787-0.274c-0.133-0.062-0.255-0.102-0.348-0.079c-0.199,0.05-0.378,0.543-0.58,0.581
		c-0.225,0.04-0.607-0.421-0.832-0.379c-0.149,0.026-0.289,0.368-0.428,0.428c-0.296,0.127-1.026,0.215-1.286,0.026
		c-0.229-0.168-0.103-0.912-0.328-1.084c-0.145-0.111-0.57,0.062-0.73-0.026c-0.291-0.157-0.468-0.922-0.756-1.084
		c-0.187-0.104-0.675,0.064-0.857-0.049c-0.165-0.104-0.208-0.589-0.378-0.682c-0.172-0.094-0.637-0.081-0.782,0.051
		c-0.241,0.219-0.233,0.962-0.202,1.285c0.023,0.24,0.283,0.671,0.328,0.907c0.054,0.292,0.242,0.983,0.025,1.185
		c-0.195,0.182-0.826-0.229-1.059-0.101c-0.222,0.124-0.23,0.788-0.455,0.907c-0.134,0.073-0.461-0.127-0.604-0.074
		c-0.164,0.059-0.312,0.459-0.479,0.504c-0.191,0.051-0.596-0.343-0.756-0.227c-0.189,0.135-0.051,0.701-0.025,0.932
		c0.022,0.201,0.246,0.584,0.202,0.781c-0.068,0.311-0.581,0.76-0.806,0.984c-0.155,0.153-0.582,0.359-0.681,0.555
		c-0.1,0.196-0.116,0.671-0.05,0.882c0.064,0.206,0.427,0.49,0.529,0.681c0.129,0.24,0.512,0.811,0.353,1.033
		c-0.143,0.199-0.868-0.217-0.983,0c-0.11,0.209,0.41,0.578,0.53,0.781c0.119,0.202,0.37,0.605,0.428,0.832
		c0.127,0.481,0.385,1.602,0.076,1.991c-0.144,0.181-0.697,0.081-0.907,0.177c-0.38,0.174-1.133,0.656-1.312,1.033
		c-0.137,0.291,0.172,1,0.025,1.285c-0.146,0.287-1.012,0.414-1.059,0.732c-0.034,0.23,0.421,0.561,0.58,0.73
		c0.146,0.157,0.553,0.38,0.63,0.579c0.078,0.202-0.138,0.652-0.076,0.858c0.062,0.201,0.459,0.457,0.529,0.655
		c0.126,0.355-0.087,1.145,0,1.512c0.033,0.137,0.225,0.366,0.252,0.505c0.063,0.322-0.019,0.992-0.101,1.311
		c-0.057,0.222-0.201,0.688-0.378,0.832c-0.16,0.129-0.602,0.154-0.807,0.177c-0.37,0.039-1.144-0.144-1.487,0
		c-0.189,0.078-0.41,0.466-0.58,0.579c-0.192,0.129-0.655,0.239-0.857,0.354c-0.185,0.104-0.471,0.471-0.681,0.503
		c-0.269,0.043-0.761-0.361-1.033-0.352c-0.164,0.005-0.457,0.32-0.605,0.251c-0.287-0.133-0.163-0.978-0.378-1.21
		c-0.115-0.123-0.461-0.265-0.631-0.251c-0.248,0.018-0.844,0.255-0.857,0.504c-0.009,0.18,0.436,0.318,0.58,0.429
		c0.165,0.124,0.564,0.317,0.656,0.503c0.099,0.203-0.101,0.705,0,0.908c0.119,0.242,0.737,0.414,0.856,0.656
		c0.16,0.321-0.091,1.09,0,1.436c0.056,0.211,0.292,0.588,0.429,0.756c0.153,0.193,0.492,0.601,0.73,0.656
		c0.114,0.027,0.376-0.038,0.454-0.126c0.139-0.157-0.007-0.67,0.126-0.832c0.106-0.13,0.462-0.236,0.63-0.228
		c0.225,0.014,0.637,0.255,0.806,0.404c0.144,0.125,0.466,0.443,0.428,0.631c-0.017,0.088-0.249,0.128-0.302,0.2
		C5.628,41.69,5.5,42.147,5.529,42.367c0.042,0.317,0.441,0.853,0.63,1.108c0.164,0.225,0.652,0.552,0.756,0.807
		c0.128,0.316-0.088,1.042,0.025,1.363c0.11,0.309,0.701,0.723,0.807,1.032c0.078,0.227,0.111,0.746,0,0.957
		c-0.104,0.197-0.619,0.314-0.731,0.505c-0.171,0.29-0.211,1.013-0.126,1.337c0.056,0.215,0.36,0.562,0.504,0.731
		c0.142,0.166,0.504,0.426,0.63,0.604c0.107,0.153,0.32,0.495,0.302,0.681c-0.005,0.055-0.074,0.119-0.134,0.182
		c-0.049,0.051-0.091,0.102-0.092,0.146c-0.005,0.667,1.032,1.729,1.487,2.219c0.441,0.473,1.51,1.219,2.042,1.587
		c0.268,0.187,0.945,0.4,1.11,0.68c0.08,0.138-0.049,0.492,0.025,0.632c0.136,0.255,0.834,0.409,0.933,0.68
		c0.088,0.246-0.405,0.8-0.252,1.009c0.126,0.173,0.665-0.045,0.857,0.051c0.097,0.048,0.26,0.222,0.277,0.327
		c0.027,0.168-0.27,0.462-0.252,0.631c0.038,0.348,0.519,0.929,0.782,1.159c0.418,0.365,1.705,0.508,1.992,0.982
		c0.121,0.2-0.12,0.72-0.025,0.935c0.111,0.248,0.72,0.457,0.833,0.705c0.103,0.23-0.115,0.771-0.025,1.008
		c0.114,0.305,0.572,0.858,0.882,0.959c0.245,0.079,0.759-0.26,1.008-0.202c0.333,0.076,0.817,0.617,1.084,0.832
		c0.193,0.153,0.659,0.404,0.756,0.63c0.113,0.262-0.162,0.863-0.075,1.134c0.084,0.266,0.662,0.583,0.706,0.858
		c0.024,0.153-0.23,0.424-0.227,0.578c0.002,0.125,0.184,0.331,0.202,0.455c0.024,0.176,0.014,0.568-0.101,0.706
		c-0.12,0.141-0.583,0.087-0.706,0.227c-0.204,0.23-0.404,0.958-0.227,1.209c0.096,0.136,0.522,0.003,0.656,0.101
		c0.147,0.109,0.254,0.488,0.327,0.656c0.101,0.229,0.173,0.76,0.353,0.934c0.115,0.11,0.496,0.084,0.605,0.2
		c0.102,0.11,0.142,0.431,0.151,0.58c0.013,0.204-0.21,0.635-0.101,0.808c0.074,0.117,0.451,0.061,0.529,0.176
		c0.124,0.184-0.148,0.684-0.051,0.883c0.162,0.328,1.137,0.473,1.21,0.832c0.053,0.264-0.605,0.639-0.58,0.907
		c0.03,0.319,0.803,0.62,0.882,0.933c0.079,0.31-0.474,0.951-0.328,1.234c0.104,0.205,0.648,0.422,0.857,0.328
		c0.29-0.129,0.284-0.918,0.454-1.186c0.122-0.191,0.438-0.531,0.63-0.654c0.224-0.145,0.854-0.135,1.008-0.354
		c0.204-0.287-0.168-1.101,0-1.411c0.083-0.152,0.42-0.447,0.58-0.379c0.124,0.054,0.067,0.4,0.101,0.53
		c0.041,0.16,0.103,0.498,0.202,0.63c0.191,0.259,0.984,0.419,1.059,0.731c0.055,0.23-0.395,0.602-0.454,0.832
		c-0.113,0.444,0.25,1.453,0,1.84c-0.143,0.221-0.807,0.213-0.958,0.428c-0.146,0.207-0.03,0.761-0.076,1.009
		c-0.056,0.298-0.147,0.937-0.353,1.16c-0.128,0.14-0.516,0.282-0.706,0.276c-0.395-0.01-1.051-0.571-1.437-0.655
		c-0.221-0.048-0.761-0.173-0.908,0c-0.148,0.176,0.224,0.688,0.151,0.908c-0.069,0.206-0.435,0.507-0.63,0.604
		c-0.137,0.068-0.453,0.121-0.605,0.102c-0.212-0.029-0.591-0.453-0.781-0.354c-0.119,0.062-0.136,0.399-0.101,0.529
		c0.032,0.121,0.265,0.271,0.328,0.378c0.143,0.248,0.504,0.827,0.377,1.085c-0.053,0.107-0.381,0.056-0.454,0.15
		c-0.116,0.15-0.088,0.57-0.051,0.758c0.07,0.344,0.671,0.908,0.631,1.259c-0.029,0.244-0.521,0.536-0.631,0.757
		c-0.175,0.354-0.351,1.143-0.353,1.537c-0.001,0.291,0.265,0.845,0.252,1.135c-0.013,0.296-0.27,0.771-0.402,1.16
		c-0.044,0.132-0.075,0.252-0.076,0.353c-0.009,0.557,0.524,1.592,0.604,2.143c0.065,0.449,0.232,1.411,0.025,1.814
		c-0.151,0.294-0.753,0.758-1.084,0.757c-0.231,0-0.535-0.463-0.756-0.529c-0.253-0.077-0.836-0.117-1.059,0.025
		c-0.341,0.219-0.441,1.154-0.706,1.462c-0.125,0.144-0.44,0.44-0.63,0.429c-0.308-0.019-0.626-0.843-0.934-0.807
		c-0.394,0.045-0.66,0.996-0.932,1.285c-0.156,0.166-0.482,0.532-0.706,0.579c-0.141,0.03-0.44-0.236-0.555-0.151
		c-0.217,0.163,0.079,0.834-0.025,1.086c-0.084,0.201-0.537,0.422-0.605,0.629c-0.086,0.267-0.012,0.883,0.151,1.109
		c0.123,0.171,0.612,0.223,0.756,0.379c0.125,0.134,0.33,0.504,0.277,0.68c-0.05,0.17-0.515,0.24-0.58,0.404
		c-0.054,0.137,0.062,0.445,0.126,0.579c0.156,0.328,0.836,0.777,0.907,1.135c0.048,0.244-0.319,0.712-0.277,0.957
		c0.027,0.16,0.344,0.37,0.378,0.53c0.049,0.226-0.29,0.706-0.176,0.907c0.108,0.192,0.689,0.133,0.831,0.302
		c0.207,0.245,0.05,0.995,0.227,1.26c0.129,0.195,0.638,0.322,0.782,0.506c0.119,0.15,0.125,0.586,0.252,0.729
		c0.232,0.266,0.996,0.398,1.261,0.632c0.194,0.169,0.494,0.612,0.58,0.857c0.08,0.227-0.089,0.782,0.076,0.957
		c0.122,0.13,0.582-0.027,0.706,0.101c0.208,0.215-0.041,0.941,0.123,1.192c0.082,0.124,0.456,0.157,0.52,0.291
		c0.033,0.073-0.076,0.235-0.057,0.312c0.049,0.199,0.431,0.452,0.501,0.643c0.042,0.115-0.049,0.391,0.019,0.492
		c0.084,0.125,0.479,0.113,0.548,0.246c0.076,0.143-0.153,0.477-0.113,0.633c0.033,0.127,0.219,0.339,0.332,0.406
		c0.221,0.132,0.805,0.036,1.011,0.189c0.12,0.089,0.133,0.48,0.274,0.529c0.189,0.066,0.535-0.38,0.729-0.33
		c0.265,0.068,0.551,0.625,0.651,0.878c0.068,0.171-0.022,0.58,0.085,0.729c0.173,0.236,0.869,0.274,1.069,0.491
		c0.098,0.106,0.097,0.443,0.198,0.548c0.209,0.215,0.893,0.244,1.116,0.445c0.137,0.121,0.183,0.555,0.34,0.651
		c0.215,0.133,0.822-0.158,1.011,0.009c0.078,0.068,0.039,0.305,0.057,0.406c0.046,0.27,0.01,0.892,0.218,1.068
		c0.084,0.072,0.347-0.033,0.444,0.019c0.185,0.102,0.419,0.489,0.482,0.69c0.084,0.266-0.202,0.924,0,1.115
		c0.109,0.105,0.459-0.066,0.605-0.027c0.111,0.029,0.328,0.147,0.388,0.246c0.071,0.117-0.042,0.443,0.047,0.548
		c0.071,0.083,0.332,0.056,0.425,0.113c0.105,0.062,0.31,0.238,0.331,0.359c0.029,0.158-0.271,0.436-0.246,0.595
		c0.025,0.154,0.369,0.323,0.407,0.473c0.05,0.201-0.272,0.62-0.18,0.805c0.094,0.186,0.614,0.196,0.765,0.34
		c0.155,0.146,0.351,0.548,0.388,0.756c0.018,0.099,0,0.26-0.024,0.407c-0.016,0.098-0.036,0.19-0.051,0.255
		c-0.051,0.215-0.32,0.611-0.303,0.832c0.021,0.268,0.529,0.668,0.52,0.936c-0.006,0.183-0.389,0.432-0.397,0.614
		c-0.013,0.286,0.426,0.746,0.529,1.012c0.15,0.384,0.432,1.177,0.425,1.589c-0.003,0.246-0.298,0.699-0.283,0.944
		c0.014,0.225,0.429,0.61,0.359,0.823c-0.047,0.143-0.452,0.168-0.52,0.301c-0.067,0.135,0.011,0.458,0.066,0.597
		c0.039,0.099,0.223,0.239,0.255,0.341c0.066,0.202,0.028,0.641-0.009,0.851c-0.024,0.136-0.069,0.443-0.184,0.525
		c-0.002,0.001-0.003,0.003-0.006,0.005c-0.195,0.121-0.693-0.152-0.917-0.095c-0.206,0.052-0.696,0.27-0.7,0.481
		c-0.002,0.141,0.409,0.205,0.454,0.34c0.085,0.254-0.186,0.784-0.293,1.029c-0.078,0.18-0.405,0.47-0.406,0.663
		c-0.001,0.284,0.377,0.78,0.586,0.974c0.175,0.162,0.726,0.223,0.851,0.425c0.116,0.187,0.07,0.671,0,0.879
		c-0.039,0.116-0.262,0.271-0.293,0.389c-0.021,0.081,0.017,0.253,0.048,0.331c0.06,0.151,0.327,0.375,0.378,0.529
		c0.075,0.225-0.096,0.738,0.019,0.945c0.091,0.162,0.505,0.263,0.624,0.405c0.082,0.1,0.169,0.35,0.198,0.473
		c0.036,0.15,0.107,0.479,0.039,0.615c-0.057,0.112-0.394,0.151-0.425,0.274c-0.035,0.139,0.152,0.426,0.273,0.501
		c0.154,0.094,0.552-0.049,0.719,0.019c0.203,0.084,0.574,0.389,0.643,0.596c0.04,0.12-0.157,0.391-0.094,0.501
		c0.077,0.136,0.444,0.151,0.585,0.218c0.103,0.047,0.303,0.153,0.388,0.228c0.149,0.127,0.335,0.498,0.501,0.604
		c0.2,0.128,0.744,0.083,0.917,0.245c0.142,0.134,0.27,0.545,0.247,0.737c-0.007,0.057-0.047,0.123-0.098,0.191
		c-0.1,0.132-0.243,0.274-0.262,0.386c-0.035,0.204,0.237,0.612,0.18,0.812c-0.036,0.127-0.341,0.249-0.369,0.378
		c-0.033,0.159,0.125,0.481,0.227,0.605c0.08,0.098,0.354,0.162,0.425,0.265c0.065,0.095,0.083,0.339,0.085,0.454
		c0.006,0.232-0.126,0.693-0.123,0.926c0.003,0.224,0.035,0.684,0.142,0.879c0.079,0.146,0.39,0.314,0.492,0.445
		c0.068,0.086,0.207,0.277,0.208,0.387c0.001,0.124-0.198,0.316-0.227,0.435c-0.034,0.146-0.069,0.47,0.01,0.597
		c0.06,0.096,0.355,0.105,0.406,0.208c0.061,0.122-0.029,0.417-0.095,0.539c-0.099,0.183-0.609,0.359-0.605,0.567
		c0.003,0.131,0.269,0.313,0.397,0.34c0.249,0.05,0.753-0.172,0.964-0.312c0.075-0.05,0.152-0.239,0.236-0.273
		c0.087-0.037,0.307-0.035,0.378,0.027c0.104,0.094,0.118,0.41,0.104,0.548c-0.018,0.172-0.169,0.491-0.265,0.634
		c-0.124,0.186-0.615,0.411-0.625,0.634c-0.006,0.166,0.332,0.374,0.426,0.51c0.063,0.091,0.14,0.309,0.217,0.388
		c0.111,0.113,0.462,0.182,0.548,0.312c0.106,0.161,0.159,0.588,0.085,0.766c-0.047,0.115-0.36,0.19-0.388,0.312
		c-0.021,0.091,0.154,0.246,0.161,0.34c0.012,0.167-0.209,0.475-0.198,0.643c0.009,0.147,0.123,0.456,0.246,0.538
		c0.127,0.088,0.508-0.082,0.614,0.028c0.098,0.104-0.105,0.474,0,0.569c0.096,0.085,0.387-0.093,0.511-0.058
		c0.126,0.035,0.391,0.192,0.416,0.321c0.036,0.187-0.271,0.502-0.388,0.651c-0.043,0.057-0.172,0.135-0.198,0.199
		c-0.069,0.174,0.063,0.564,0.019,0.748c-0.024,0.1-0.109,0.306-0.198,0.358c-0.041,0.023-0.146-0.02-0.189,0
		c-0.13,0.059-0.264,0.341-0.378,0.425c-0.12,0.088-0.465,0.117-0.539,0.246c-0.094,0.164,0.113,0.57,0.076,0.756
		c-0.028,0.14-0.149,0.432-0.274,0.501c-0.111,0.063-0.396,0.028-0.51-0.028c-0.133-0.065-0.252-0.391-0.387-0.453
		c-0.102-0.047-0.347-0.054-0.444,0c-0.168,0.094-0.317,0.482-0.407,0.652c-0.058,0.109-0.173,0.332-0.199,0.453
		c-0.019,0.096-0.026,0.295,0,0.388c0.047,0.164,0.332,0.409,0.359,0.577c0.027,0.164-0.029,0.537-0.151,0.652
		c-0.092,0.088-0.411-0.006-0.501,0.085c-0.11,0.11,0.005,0.503-0.104,0.614c-0.091,0.092-0.4,0.027-0.511,0.094
		c-0.111,0.068-0.284,0.283-0.322,0.407c-0.063,0.211,0.119,0.664,0.066,0.879c-0.031,0.126-0.17,0.365-0.274,0.444
		c-0.09,0.068-0.344,0.055-0.435,0.123c-0.138,0.105-0.253,0.457-0.359,0.596c-0.078,0.101-0.291,0.257-0.351,0.369
		c-0.117,0.224-0.064,0.783-0.208,0.992c-0.102,0.149-0.48,0.265-0.605,0.396c-0.149,0.158-0.43,0.53-0.435,0.747
		c-0.003,0.138,0.268,0.347,0.255,0.481c-0.018,0.18-0.291,0.482-0.454,0.559c-0.139,0.064-0.526-0.136-0.615-0.01
		c-0.075,0.107,0.181,0.36,0.189,0.491c0.01,0.168-0.038,0.538-0.161,0.653c-0.102,0.094-0.418,0.044-0.548,0.094
		c-0.099,0.039-0.299,0.14-0.359,0.227c-0.097,0.139-0.029,0.536-0.142,0.662c-0.073,0.082-0.216,0.127-0.378,0.16
		c-0.281,0.059-0.62,0.086-0.756,0.218c-0.088,0.086-0.107,0.357-0.17,0.464c-0.057,0.094-0.262,0.225-0.293,0.33
		c-0.047,0.158,0.202,0.528,0.095,0.652c-0.093,0.108-0.439,0.062-0.567,0c-0.116-0.054-0.216-0.324-0.321-0.396
		c-0.06-0.04-0.21-0.117-0.274-0.085c-0.124,0.062-0.095,0.419-0.188,0.52c-0.101,0.108-0.459,0.113-0.54,0.237
		c-0.075,0.114-0.081,0.437,0,0.549c0.046,0.062,0.236,0.05,0.303,0.094c0.132,0.086,0.366,0.322,0.416,0.473
		c0.043,0.129,0.062,0.453-0.038,0.547c-0.124,0.117-0.539-0.094-0.681,0c-0.072,0.049-0.058,0.277-0.132,0.321
		c-0.093,0.058-0.344-0.098-0.435-0.037c-0.09,0.06-0.023,0.404-0.132,0.416c-0.12,0.014-0.134-0.368-0.245-0.416
		c-0.108-0.046-0.357,0.048-0.454,0.114c-0.1,0.068-0.223,0.291-0.284,0.396c-0.018,0.032-0.034,0.077-0.05,0.128
		c-0.052,0.174-0.098,0.416-0.215,0.459c-0.113,0.042-0.316-0.187-0.435-0.208c-0.14-0.024-0.457-0.033-0.567,0.058
		c-0.199,0.162-0.17,0.763-0.302,0.982c-0.142,0.234-0.66,0.527-0.775,0.774c-0.074,0.16,0.025,0.546-0.057,0.699
		c-0.045,0.088-0.274,0.154-0.303,0.247c-0.045,0.151,0.093,0.479,0.189,0.604c0.086,0.112,0.408,0.179,0.473,0.303
		c0.066,0.124-0.051,0.43-0.019,0.567c0.041,0.176,0.316,0.463,0.34,0.643c0.02,0.149-0.089,0.442-0.132,0.586
		c-0.058,0.192-0.197,0.572-0.29,0.751c-0.043,0.081-0.157,0.231-0.208,0.308c-0.051,0.079-0.165,0.229-0.201,0.316
		c-0.064,0.148-0.105,0.475-0.152,0.629c-0.041,0.136-0.136,0.4-0.189,0.529c-0.095,0.234-0.301,0.697-0.39,0.934
		c-0.056,0.146-0.169,0.439-0.202,0.592c-0.028,0.127-0.025,0.391-0.05,0.518c-0.044,0.216-0.122,0.676-0.265,0.844
		c-0.068,0.08-0.326,0.098-0.378,0.188c-0.066,0.116,0.087,0.406,0.038,0.531c-0.031,0.078-0.2,0.159-0.252,0.227
		c-0.085,0.108-0.208,0.363-0.264,0.49c-0.052,0.114-0.136,0.351-0.174,0.47c-0.017,0.054-0.035,0.166-0.057,0.217
		c-0.043,0.107-0.194,0.295-0.227,0.407c-0.021,0.073,0.007,0.231-0.02,0.302c-0.05,0.138-0.249,0.359-0.349,0.464
		c-0.034,0.035-0.121,0.085-0.152,0.124c-0.101,0.122-0.205,0.433-0.303,0.557c-0.088,0.113-0.373,0.255-0.425,0.388
		c-0.03,0.075-0.017,0.256,0.028,0.322c0.046,0.066,0.213,0.126,0.293,0.142c0.121,0.023,0.404-0.113,0.492-0.029
		c0.061,0.061,0.039,0.271-0.01,0.342c-0.053,0.075-0.25,0.126-0.341,0.141c-0.072,0.012-0.223-0.043-0.293-0.02
		c-0.093,0.033-0.201,0.229-0.292,0.266c-0.082,0.032-0.273-0.032-0.35,0.009c-0.055,0.03-0.124,0.147-0.142,0.208
		c-0.012,0.039-0.022,0.128,0,0.161c0.045,0.069,0.22,0.129,0.302,0.133c0.087,0.003,0.244-0.116,0.332-0.114
		c0.089,0.004,0.288,0.062,0.33,0.142c0.041,0.077,0.012,0.304-0.066,0.341c-0.086,0.042-0.245-0.185-0.34-0.18
		c-0.066,0.003-0.217,0.085-0.217,0.151c-0.001,0.069,0.206,0.095,0.227,0.161c0.018,0.061-0.037,0.196-0.085,0.235
		c-0.055,0.045-0.214,0.054-0.284,0.038c-0.07-0.016-0.193-0.101-0.246-0.151c-0.041-0.039-0.081-0.161-0.132-0.188
		c-0.08-0.042-0.287-0.053-0.359,0c-0.07,0.051-0.036,0.277-0.104,0.33c-0.041,0.033-0.167-0.013-0.208,0.019
		c-0.069,0.056-0.121,0.244-0.114,0.332c0.005,0.059,0.063,0.177,0.114,0.207c0.048,0.031,0.183-0.026,0.227,0.01
		c0.079,0.065,0.029,0.319,0.095,0.397c0.051,0.061,0.213,0.117,0.292,0.123c0.076,0.006,0.237-0.025,0.293-0.076
		c0.062-0.056,0.114-0.229,0.113-0.311c0-0.069-0.122-0.194-0.095-0.256c0.032-0.074,0.215-0.137,0.293-0.123
		c0.059,0.01,0.162,0.103,0.179,0.161c0.026,0.083-0.048,0.26-0.085,0.339c-0.024,0.053-0.091,0.148-0.132,0.189
		c-0.041,0.039-0.152,0.082-0.189,0.123c-0.074,0.082-0.117,0.322-0.198,0.396c-0.059,0.057-0.214,0.134-0.293,0.123
		c-0.062-0.007-0.139-0.131-0.199-0.151c-0.066-0.022-0.216-0.021-0.283,0c-0.075,0.024-0.231,0.106-0.255,0.181
		c-0.016,0.05,0.058,0.147,0.066,0.198c0.008,0.054,0.038,0.18,0,0.218c-0.017,0.016-0.075-0.014-0.094,0
		c-0.082,0.052-0.192,0.259-0.161,0.349c0.011,0.033,0.088,0.062,0.123,0.066c0.094,0.013,0.275-0.08,0.369-0.085
		c0.09-0.004,0.275,0.08,0.359,0.047c0.055-0.021,0.098-0.154,0.151-0.18c0.111-0.051,0.405-0.086,0.492,0
		c0.043,0.044,0.039,0.199,0,0.246c-0.04,0.049-0.201,0.003-0.246,0.047c-0.051,0.053-0.002,0.235-0.057,0.284
		c-0.07,0.063-0.304-0.021-0.378,0.038c-0.057,0.044-0.029,0.241-0.095,0.274c-0.066,0.033-0.223-0.05-0.283-0.095
		c-0.076-0.057-0.133-0.267-0.217-0.312c-0.075-0.039-0.269-0.055-0.34-0.008c-0.053,0.031-0.121,0.166-0.104,0.226
		c0.016,0.058,0.141,0.117,0.198,0.132c0.029,0.009,0.093-0.017,0.123-0.009c0.122,0.03,0.371,0.152,0.425,0.265
		c0.028,0.059,0.018,0.211-0.029,0.256c-0.04,0.036-0.166,0.027-0.217,0.008c-0.042-0.015-0.091-0.103-0.132-0.121
		c-0.084-0.041-0.299-0.109-0.369-0.049c-0.067,0.06-0.05,0.286,0,0.359c0.049,0.074,0.242,0.122,0.331,0.133
		c0.05,0.006,0.149-0.038,0.198-0.029c0.095,0.021,0.308,0.105,0.331,0.199c0.014,0.055-0.065,0.162-0.113,0.189
		c-0.045,0.025-0.168-0.033-0.208,0c-0.042,0.035,0.001,0.178-0.038,0.217c-0.033,0.035-0.141,0.043-0.189,0.038
		c-0.117-0.007-0.327-0.147-0.444-0.151c-0.074-0.002-0.225,0.032-0.284,0.076c-0.058,0.043-0.149,0.174-0.151,0.246
		c-0.001,0.062,0.065,0.18,0.113,0.217c0.043,0.033,0.155,0.042,0.208,0.047c0.033,0.004,0.1-0.007,0.133,0
		c0.074,0.02,0.238,0.074,0.273,0.143c0.023,0.044,0.009,0.164-0.028,0.198c-0.053,0.05-0.221,0.029-0.293,0.02
		c-0.06-0.01-0.167-0.076-0.227-0.086c-0.065-0.011-0.211-0.038-0.265,0c-0.04,0.028-0.08,0.135-0.066,0.18
		c0.021,0.066,0.159,0.146,0.227,0.16c0.064,0.015,0.19-0.049,0.256-0.056c0.057-0.007,0.181-0.033,0.227,0s0.029,0.182,0.075,0.217
		c0.057,0.044,0.215,0.037,0.283,0.019c0.074-0.019,0.204-0.113,0.255-0.169c0.039-0.042,0.064-0.169,0.113-0.198
		c0.1-0.06,0.388-0.099,0.463-0.01c0.07,0.081,0.007,0.356-0.076,0.425c-0.04,0.033-0.16-0.021-0.208,0
		c-0.057,0.025-0.111,0.16-0.17,0.18c-0.085,0.029-0.289-0.103-0.359-0.048c-0.078,0.063,0.018,0.315-0.038,0.398
		c-0.042,0.061-0.191,0.14-0.265,0.131c-0.11-0.012-0.264-0.202-0.34-0.283c-0.074-0.076-0.16-0.292-0.255-0.34
		c-0.086-0.043-0.331-0.078-0.388,0c-0.099,0.134,0.251,0.477,0.199,0.634c-0.027,0.08-0.249,0.117-0.274,0.198
		c-0.04,0.126,0.148,0.37,0.17,0.501c0.031,0.186,0.059,0.577,0,0.756c-0.061,0.188-0.335,0.484-0.463,0.633
		c-0.104,0.123-0.377,0.313-0.453,0.455c-0.102,0.186-0.17,0.618-0.18,0.831c-0.003,0.062,0.018,0.147,0.041,0.239
		c0.04,0.158,0.086,0.33,0.035,0.423c-0.041,0.072-0.242,0.083-0.302,0.142c-0.099,0.094-0.216,0.352-0.255,0.482
		c-0.032,0.102,0.027,0.348-0.047,0.425c-0.054,0.057-0.25-0.002-0.312,0.048c-0.081,0.065-0.148,0.284-0.151,0.387
		c-0.001,0.053,0.021,0.172,0.066,0.199c0.088,0.054,0.31-0.099,0.407-0.066c0.067,0.024,0.176,0.14,0.198,0.208
		c0.023,0.067,0.015,0.234-0.037,0.283c-0.043,0.042-0.201-0.028-0.236,0.02c-0.049,0.066,0.121,0.26,0.066,0.321
		c-0.067,0.074-0.314,0.018-0.397-0.038c-0.046-0.03-0.059-0.165-0.104-0.198c-0.062-0.046-0.237-0.097-0.303-0.057
		c-0.056,0.034-0.071,0.188-0.076,0.255c-0.007,0.107,0.046,0.319,0.066,0.426c0.029,0.15,0.042,0.48,0.143,0.596
		c0.064,0.074,0.301,0.069,0.368,0.141c0.107,0.117,0.055,0.509,0.18,0.605c0.094,0.073,0.37-0.038,0.473,0.02
		c0.108,0.062,0.276,0.292,0.274,0.415c-0.002,0.111-0.151,0.324-0.255,0.359c-0.1,0.035-0.301-0.129-0.406-0.123
		c-0.131,0.009-0.37,0.143-0.482,0.209c-0.113,0.067-0.367,0.199-0.416,0.32c-0.043,0.109,0.023,0.359,0.076,0.464
		c0.033,0.067,0.133,0.204,0.207,0.218c0.112,0.02,0.297-0.174,0.407-0.198c0.087-0.021,0.287,0.052,0.359,0
		c0.084-0.062,0.04-0.337,0.123-0.397c0.059-0.043,0.226-0.029,0.293,0c0.063,0.025,0.184,0.13,0.189,0.199
		c0.006,0.076-0.119,0.205-0.179,0.254c-0.068,0.055-0.254,0.078-0.322,0.133c-0.082,0.066-0.144,0.299-0.236,0.349
		c-0.068,0.039-0.249-0.034-0.312,0.011c-0.06,0.042-0.041,0.236-0.104,0.274c-0.076,0.045-0.278-0.1-0.35-0.048
		c-0.066,0.049-0.018,0.25-0.057,0.321c-0.039,0.071-0.157,0.204-0.236,0.219c-0.092,0.015-0.297-0.069-0.34-0.152
		c-0.029-0.056,0.017-0.19,0.047-0.246c0.029-0.055,0.15-0.115,0.18-0.17c0.034-0.063,0.068-0.214,0.047-0.283
		c-0.017-0.055-0.114-0.128-0.16-0.161c-0.073-0.051-0.248-0.103-0.322-0.151c-0.1-0.066-0.241-0.298-0.359-0.321
		c-0.111-0.021-0.366,0.057-0.426,0.151c-0.084,0.135,0.043,0.476,0.066,0.634c0.019,0.129,0.106,0.38,0.095,0.511
		c-0.011,0.12-0.178,0.332-0.17,0.454c0.007,0.088,0.148,0.225,0.17,0.311c0.021,0.083-0.031,0.262,0,0.34
		c0.042,0.105,0.202,0.344,0.312,0.322c0.122-0.023,0.174-0.339,0.188-0.463c0.011-0.096-0.085-0.287-0.057-0.379
		c0.028-0.087,0.172-0.227,0.255-0.264c0.043-0.02,0.148-0.033,0.189-0.011c0.116,0.065,0.241,0.332,0.264,0.465
		c0.021,0.122-0.001,0.398-0.085,0.491c-0.048,0.053-0.209,0.046-0.274,0.076c-0.113,0.051-0.35,0.167-0.416,0.273
		c-0.039,0.062-0.044,0.219-0.038,0.293c0.012,0.131,0.203,0.377,0.161,0.5c-0.037,0.11-0.334,0.158-0.378,0.266
		c-0.044,0.11,0.102,0.346,0.094,0.462c-0.011,0.188-0.167,0.536-0.236,0.711c-0.039,0.098-0.092,0.324-0.179,0.388
		c-0.124,0.088-0.538-0.07-0.605,0.066c-0.053,0.105,0.163,0.32,0.246,0.405c0.055,0.056,0.227,0.101,0.264,0.169
		c0.036,0.066-0.006,0.222,0,0.293c0.015,0.15,0.111,0.438,0.114,0.588c0.003,0.126,0.004,0.401-0.076,0.5
		c-0.055,0.069-0.277,0.054-0.331,0.124c-0.037,0.05-0.047,0.191-0.019,0.245c0.049,0.096,0.329,0.117,0.369,0.217
		c0.031,0.078-0.029,0.27-0.095,0.322c-0.062,0.049-0.267-0.045-0.312,0.019c-0.051,0.073,0.057,0.261,0.095,0.341
		c0.03,0.062,0.125,0.166,0.161,0.227c0.044,0.075,0.098,0.244,0.151,0.312c0.053,0.067,0.228,0.141,0.265,0.217
		c0.036,0.077,0.057,0.278,0,0.341c-0.035,0.039-0.159,0.037-0.208,0.019c-0.084-0.03-0.209-0.177-0.255-0.254
		c-0.048-0.081-0.061-0.277-0.104-0.359c-0.047-0.09-0.221-0.218-0.255-0.312c-0.032-0.09,0.05-0.299,0-0.378
		c-0.051-0.083-0.254-0.188-0.35-0.171c-0.051,0.01-0.125,0.103-0.142,0.151c-0.059,0.171,0.016,0.543,0.057,0.718
		c0.043,0.185,0.223,0.521,0.284,0.699c0.051,0.148,0.124,0.456,0.17,0.605c0.071,0.229,0.212,0.687,0.303,0.908
		c0.072,0.176,0.294,0.5,0.334,0.686c0.05,0.23-0.079,0.711-0.025,0.939c0.061,0.264,0.439,0.69,0.504,0.953
		c0.034,0.135,0.028,0.424,0,0.56c-0.021,0.108-0.165,0.294-0.17,0.403c-0.005,0.131,0.055,0.418,0.158,0.498
		c0.086,0.068,0.334-0.006,0.441,0.025c0.123,0.036,0.324,0.218,0.448,0.252c0.062,0.018,0.206-0.031,0.258,0.007
		c0.073,0.051,0.053,0.283,0.126,0.334c0.088,0.061,0.351-0.08,0.429-0.007c0.081,0.078,0.028,0.336,0.019,0.448
		c-0.009,0.103-0.127,0.308-0.088,0.403c0.067,0.165,0.42,0.406,0.598,0.391c0.098-0.01,0.267-0.175,0.284-0.271
		c0.019-0.112-0.233-0.295-0.202-0.403c0.027-0.096,0.242-0.229,0.34-0.21c0.079,0.017,0.154,0.192,0.189,0.266
		c0.043,0.093,0.008,0.369,0.106,0.397c0.076,0.022,0.191-0.147,0.233-0.214c0.08-0.126,0.165-0.419,0.176-0.567
		c0.011-0.148-0.183-0.468-0.095-0.587c0.067-0.091,0.367,0.017,0.448-0.062c0.079-0.077,0.099-0.328,0.076-0.437
		c-0.014-0.066-0.108-0.178-0.15-0.232c-0.057-0.07-0.23-0.172-0.256-0.26c-0.04-0.135,0.14-0.414,0.113-0.554
		c-0.019-0.101-0.13-0.308-0.227-0.344c-0.069-0.026-0.215,0.107-0.284,0.081c-0.079-0.032-0.197-0.211-0.174-0.294
		c0.021-0.08,0.208-0.141,0.288-0.166c0.095-0.028,0.298-0.012,0.396-0.027c0.047-0.009,0.139-0.062,0.185-0.047
		c0.065,0.02,0.141,0.15,0.18,0.207c0.05,0.074,0.152,0.229,0.166,0.317c0.012,0.079-0.063,0.236-0.056,0.316
		c0.004,0.063,0.027,0.214,0.084,0.24c0.081,0.039,0.282-0.047,0.335-0.118c0.062-0.079,0.073-0.308,0.034-0.401
		c-0.026-0.061-0.173-0.113-0.208-0.17c-0.037-0.059-0.075-0.202-0.062-0.27c0.015-0.077,0.11-0.22,0.18-0.255
		c0.059-0.029,0.196,0.007,0.26,0.009c0.084,0.003,0.258,0.046,0.336,0.014c0.144-0.058,0.299-0.362,0.425-0.453
		c0.108-0.076,0.351-0.206,0.482-0.217c0.122-0.01,0.393,0.215,0.473,0.122c0.057-0.065-0.113-0.235-0.132-0.321
		c-0.028-0.129-0.145-0.489-0.019-0.529c0.095-0.029,0.139,0.271,0.218,0.331c0.142,0.109,0.501,0.229,0.681,0.227
		c0.107-0.001,0.308-0.187,0.406-0.142c0.075,0.033,0.142,0.223,0.123,0.303c-0.026,0.109-0.235,0.252-0.34,0.292
		c-0.101,0.041-0.365-0.064-0.435,0.02c-0.06,0.072,0.053,0.276,0.047,0.368c-0.011,0.182-0.194,0.521-0.18,0.701
		c0.009,0.112,0.092,0.342,0.18,0.416c0.095,0.079,0.364,0.148,0.482,0.113c0.136-0.043,0.294-0.309,0.388-0.417
		c0.081-0.091,0.195-0.339,0.312-0.378c0.083-0.027,0.284,0.019,0.34,0.085c0.018,0.021,0.029,0.05,0.038,0.087l0.001,0.002
		c0.024,0.098,0.019,0.233-0.01,0.298c-0.039,0.087-0.312,0.135-0.302,0.228c0.009,0.098,0.292,0.092,0.35,0.17
		c0.041,0.057,0.055,0.207,0.038,0.273c-0.028,0.109-0.25,0.25-0.265,0.359c-0.01,0.079,0.042,0.262,0.113,0.294
		c0.076,0.035,0.247-0.062,0.312-0.113c0.084-0.066,0.135-0.325,0.236-0.358c0.049-0.018,0.167,0.023,0.199,0.066
		c0.084,0.11-0.026,0.428,0.028,0.557c0.041,0.097,0.256,0.202,0.283,0.302c0.051,0.184-0.019,0.614-0.16,0.738
		c-0.062,0.055-0.287-0.041-0.331,0.028c-0.061,0.096,0.077,0.349,0.161,0.426c0.086,0.08,0.381,0.037,0.453,0.133
		c0.053,0.066,0.066,0.277,0.01,0.34c-0.069,0.078-0.336-0.029-0.416,0.037c-0.147,0.125-0.246,0.561-0.199,0.748
		c0.043,0.166,0.386,0.352,0.473,0.5c0.073,0.126,0.062,0.459,0.17,0.557c0.077,0.071,0.33,0.156,0.406,0.086
		c0.083-0.073-0.085-0.339-0.047-0.443c0.038-0.102,0.204-0.3,0.312-0.303c0.132-0.004,0.334,0.234,0.397,0.35
		c0.079,0.146-0.013,0.533,0.094,0.661c0.06,0.071,0.263,0.144,0.35,0.113c0.127-0.042,0.192-0.373,0.312-0.435
		c0.089-0.045,0.313,0.053,0.397,0c0.096-0.061,0.118-0.327,0.199-0.406c0.08-0.077,0.301-0.217,0.406-0.18
		c0.114,0.042,0.114,0.371,0.217,0.436c0.081,0.05,0.294-0.045,0.378,0c0.096,0.051,0.215,0.254,0.246,0.358
		c0.053,0.178-0.055,0.557-0.019,0.737c0.035,0.168,0.141,0.529,0.284,0.624c0.122,0.081,0.443-0.013,0.586,0.02
		c0.123,0.026,0.382,0.102,0.463,0.197c0.084,0.1,0.035,0.409,0.123,0.501c0.056,0.061,0.236,0.127,0.312,0.095
		c0.089-0.037,0.129-0.259,0.179-0.339c0.037-0.058,0.1-0.188,0.161-0.218c0.065-0.032,0.242-0.044,0.293,0.009
		c0.075,0.078,0.056,0.342,0,0.436c-0.042,0.068-0.244,0.081-0.284,0.15c-0.082,0.146,0.109,0.513,0.038,0.662
		c-0.018,0.037-0.11,0.061-0.133,0.096c-0.07,0.103-0.043,0.385-0.123,0.48c-0.104,0.127-0.523,0.128-0.596,0.273
		c-0.05,0.104,0.096,0.332,0.105,0.445c0.022,0.288-0.121,0.867-0.086,1.153c0.021,0.173,0.084,0.55,0.217,0.662
		c0.136,0.112,0.524,0.077,0.7,0.094c0.158,0.015,0.478,0.069,0.633,0.038c0.08-0.015,0.253-0.071,0.293-0.142
		c0.075-0.129-0.067-0.447-0.047-0.595c0.024-0.176,0.07-0.67,0.246-0.663c0.156,0.007,0.094,0.468,0.17,0.605
		c0.046,0.084,0.17,0.241,0.255,0.284c0.162,0.081,0.582-0.042,0.719,0.075c0.091,0.077,0.069,0.356,0.123,0.463
		c0.083,0.164,0.289,0.497,0.454,0.577c0.146,0.072,0.516-0.089,0.652,0c0.137,0.088,0.333,0.446,0.265,0.595
		c-0.074,0.162-0.673,0.032-0.681,0.209c-0.005,0.134,0.367,0.19,0.501,0.197c0.154,0.009,0.463-0.239,0.596-0.16
		c0.018,0.011,0.034,0.025,0.048,0.044c0.118,0.153,0.116,0.54,0.132,0.712c0.017,0.187-0.098,0.571-0.039,0.748
		c0.045,0.131,0.384,0.288,0.36,0.426c-0.025,0.136-0.416,0.151-0.482,0.272c-0.021,0.04-0.023,0.15,0.009,0.182
		c0.064,0.062,0.273-0.016,0.359,0.008c0.087,0.025,0.248,0.117,0.312,0.18c0.132,0.13,0.354,0.451,0.387,0.633
		c0.037,0.207-0.132,0.616-0.161,0.822c-0.027,0.193-0.063,0.582-0.066,0.775c-0.002,0.129-0.061,0.42,0.028,0.511
		c0.062,0.063,0.269-0.005,0.35,0.028c0.101,0.041,0.267,0.193,0.34,0.274c0.126,0.141,0.229,0.573,0.407,0.634
		c0.093,0.031,0.271-0.139,0.369-0.133c0.111,0.007,0.307,0.134,0.397,0.199c0.141,0.099,0.327,0.434,0.492,0.481
		c0.162,0.049,0.551-0.005,0.661-0.132c0.128-0.146,0.038-0.582,0.047-0.775c0.01-0.223-0.071-0.69,0.029-0.889
		c0.057-0.113,0.275-0.342,0.397-0.312c0.094,0.022,0.141,0.255,0.16,0.35c0.035,0.165,0.005,0.504-0.009,0.671
		c-0.014,0.169-0.172,0.516-0.104,0.671c0.031,0.071,0.182,0.192,0.255,0.171c0.062-0.019,0.059-0.19,0.104-0.236
		c0.113-0.116,0.476-0.156,0.586-0.274c0.084-0.091,0.166-0.341,0.18-0.464c0.018-0.151-0.171-0.479-0.085-0.604
		c0.112-0.165,0.622-0.305,0.775-0.181c0.084,0.069,0.01,0.328-0.009,0.435c-0.03,0.171-0.157,0.494-0.227,0.653
		c-0.092,0.206-0.27,0.639-0.435,0.793c-0.159,0.149-0.66,0.196-0.794,0.368c-0.087,0.114-0.149,0.424-0.104,0.559
		c0.058,0.173,0.446,0.336,0.539,0.492c0.067,0.112,0.097,0.382,0.124,0.509c0.041,0.195-0.019,0.667,0.142,0.785
		c0.133,0.097,0.497-0.136,0.652-0.085c0.119,0.04,0.235,0.371,0.359,0.351c0.144-0.024,0.152-0.428,0.265-0.52
		c0.107-0.091,0.413-0.224,0.539-0.161c0.125,0.062,0.189,0.38,0.198,0.521c0.007,0.116-0.157,0.345-0.113,0.453
		c0.025,0.064,0.167,0.155,0.236,0.151c0.138-0.008,0.303-0.287,0.426-0.351c0.126-0.064,0.408-0.166,0.548-0.141
		c0.101,0.017,0.32,0.126,0.34,0.227c0.02,0.094-0.144,0.257-0.217,0.321c-0.028,0.024-0.072,0.045-0.122,0.063
		c-0.132,0.05-0.308,0.092-0.36,0.173c-0.062,0.098,0.062,0.371-0.01,0.463c-0.05,0.066-0.248,0.055-0.321,0.094
		c-0.123,0.069-0.342,0.26-0.416,0.379c-0.045,0.073-0.128,0.254-0.095,0.331c0.042,0.095,0.299,0.112,0.369,0.188
		c0.081,0.088,0.22,0.331,0.18,0.443c-0.056,0.159-0.543,0.161-0.586,0.323c-0.025,0.096,0.121,0.291,0.208,0.34
		c0.09,0.051,0.317-0.033,0.416,0c0.099,0.033,0.317,0.152,0.331,0.255c0.013,0.098-0.151,0.264-0.236,0.312
		c-0.128,0.073-0.5-0.054-0.586,0.066c-0.083,0.115,0.129,0.414,0.123,0.559c-0.004,0.078-0.096,0.223-0.095,0.301
		c0.002,0.134,0.086,0.408,0.18,0.502c0.141,0.141,0.563,0.197,0.748,0.273c0.255,0.105,0.745,0.361,1.001,0.464
		c0.137,0.054,0.466,0.073,0.558,0.188c0.087,0.11-0.002,0.431,0.057,0.559c0.048,0.104,0.207,0.317,0.321,0.331
		c0.104,0.012,0.247-0.236,0.35-0.227c0.127,0.011,0.287,0.252,0.369,0.35c0.129,0.152,0.303,0.522,0.445,0.662
		c0.104,0.104,0.396,0.209,0.491,0.321c0.104,0.12,0.236,0.42,0.265,0.576c0.03,0.158-0.17,0.553-0.038,0.644
		c0.103,0.07,0.331-0.188,0.453-0.209c0.087-0.015,0.277-0.02,0.35,0.029c0.099,0.064,0.194,0.3,0.218,0.415
		c0.019,0.091,0.003,0.282-0.028,0.369c-0.036,0.101-0.289,0.251-0.246,0.349c0.031,0.07,0.229,0.02,0.302,0.039
		c0.11,0.027,0.354,0.072,0.426,0.16c0.116,0.146-0.005,0.587,0.104,0.738c0.07,0.096,0.333,0.134,0.426,0.208
		c0.144,0.113,0.297,0.488,0.463,0.566c0.062,0.03,0.219,0.04,0.274,0c0.074-0.052,0.064-0.271,0.123-0.34
		c0.066-0.078,0.257-0.208,0.359-0.199c0.087,0.007,0.241,0.138,0.274,0.218c0.055,0.135-0.016,0.441-0.066,0.576
		c-0.025,0.067-0.173,0.166-0.161,0.237c0.022,0.126,0.347,0.194,0.416,0.302c0.072,0.111,0.084,0.389,0.104,0.52
		c0.021,0.143-0.076,0.517,0.057,0.568c0.171,0.066,0.45-0.337,0.548-0.492c0.071-0.113,0.096-0.39,0.152-0.51
		c0.065-0.143,0.326-0.373,0.34-0.53c0.019-0.219-0.408-0.603-0.34-0.813c0.064-0.199,0.605-0.258,0.718-0.435
		c0.092-0.145,0.144-0.523,0.076-0.681c-0.059-0.136-0.438-0.213-0.472-0.359c-0.043-0.184,0.305-0.493,0.34-0.68
		c0.046-0.242-0.235-0.781-0.094-0.984c0.137-0.195,0.704-0.334,0.926-0.244c0.134,0.052,0.16,0.468,0.302,0.49
		c0.049,0.009,0.101-0.027,0.152-0.08c0.102-0.104,0.207-0.273,0.302-0.297c0.16-0.041,0.539,0.005,0.643,0.131
		c0.048,0.06-0.02,0.23,0,0.304c0.069,0.244,0.438,0.632,0.529,0.869c0.098,0.251,0.035,0.853,0.208,1.06
		c0.085,0.1,0.391,0.104,0.491,0.189c0.171,0.145,0.288,0.623,0.454,0.774c0.243,0.22,0.863,0.542,1.191,0.548
		c0.286,0.007,0.785-0.518,1.059-0.435c0.251,0.075,0.355,0.747,0.586,0.869c0.137,0.074,0.47-0.028,0.624,0
		c0.229,0.044,0.648,0.266,0.869,0.341c0.289,0.098,0.874,0.405,1.173,0.341c0.249-0.054,0.56-0.525,0.774-0.663
		c0.215-0.136,0.706-0.54,0.927-0.415c0.244,0.139-0.101,0.96,0.133,1.114c0.102,0.069,0.354-0.163,0.472-0.131
		c0.275,0.073,0.681,0.553,0.794,0.812c0.085,0.195-0.021,0.646,0.038,0.851c0.066,0.23,0.454,0.595,0.473,0.833
		c0.016,0.211-0.296,0.581-0.303,0.793c-0.003,0.096,0.011,0.252,0.044,0.399c0.038,0.175,0.104,0.341,0.202,0.395
		c0.219,0.12,0.716-0.295,0.964-0.265c0.189,0.023,0.474,0.35,0.662,0.379c0.11,0.017,0.338-0.039,0.435-0.095
		c0.2-0.114,0.399-0.628,0.624-0.681c0.213-0.049,0.621,0.217,0.813,0.322c0.154,0.084,0.391,0.421,0.567,0.415
		c0.177-0.005,0.371-0.464,0.548-0.453c0.21,0.011,0.494,0.415,0.586,0.604c0.108,0.224,0.278,0.783,0.132,0.984
		c-0.062,0.085-0.32,0.031-0.417,0.075c-0.177,0.082-0.553,0.304-0.604,0.492c-0.055,0.197,0.155,0.613,0.284,0.774
		c0.122,0.155,0.615,0.242,0.662,0.435c0.044,0.186-0.322,0.48-0.378,0.662c-0.053,0.173-0.117,0.55-0.056,0.719
		c0.06,0.167,0.503,0.334,0.491,0.511c-0.01,0.149-0.419,0.235-0.473,0.377c-0.055,0.149,0.152,0.47,0.114,0.625
		c-0.051,0.209-0.349,0.562-0.53,0.68c-0.196,0.128-0.758,0.046-0.908,0.228c-0.117,0.144,0.022,0.563-0.038,0.737
		c-0.07,0.201-0.386,0.514-0.492,0.7c-0.114,0.202-0.464,0.634-0.378,0.85c0.042,0.104,0.338,0.09,0.416,0.171
		c0.173,0.182,0.142,0.791,0.34,0.945c0.199,0.153,0.781-0.026,1.002,0.095c0.257,0.141,0.529,0.703,0.719,0.926
		c0.171,0.201,0.457,0.739,0.718,0.774c0.198,0.027,0.503-0.325,0.681-0.415c0.192-0.096,0.662-0.154,0.794-0.32
		c0.06-0.076,0.016-0.293,0.057-0.379c0.105-0.221,0.599-0.482,0.661-0.719c0.042-0.16-0.179-0.48-0.151-0.643
		c0.042-0.24,0.345-0.656,0.529-0.813c0.125-0.106,0.44-0.265,0.604-0.265c0.219,0.002,0.586,0.422,0.794,0.359
		c0.21-0.062,0.33-0.572,0.473-0.738c0.156-0.18,0.494-0.546,0.718-0.623c0.233-0.079,0.741,0.102,0.983,0.057
		c0.15-0.027,0.386-0.152,0.575-0.25c0.068-0.035,0.131-0.067,0.182-0.09c0.241-0.111,0.715-0.359,0.963-0.454
		c0.185-0.071,0.566-0.277,0.756-0.227c0.252,0.066,0.532,0.573,0.719,0.756c0.114,0.112,0.408,0.288,0.472,0.435
		c0.079,0.178-0.087,0.604,0,0.775c0.051,0.1,0.286,0.182,0.359,0.265c0.115,0.13,0.193,0.514,0.34,0.604
		c0.153,0.096,0.551,0.103,0.72,0.038c0.138-0.053,0.269-0.417,0.415-0.415c0.231,0.001,0.451,0.534,0.644,0.661
		c0.224,0.15,0.759,0.513,1.002,0.396c0.224-0.104,0.151-0.747,0.303-0.944c0.116-0.151,0.534-0.258,0.643-0.417
		c0.079-0.115,0.022-0.441,0.114-0.548c0.118-0.135,0.524-0.154,0.68-0.246c0.135-0.08,0.398-0.277,0.473-0.414
		c0.165-0.308,0.162-1.035,0.189-1.381c0.021-0.265-0.116-0.831,0.02-1.06c0.138-0.235,0.725-0.386,0.945-0.548
		c0.479-0.353,1.504-1.068,1.758-1.607c0.082-0.175,0.057-0.581,0.037-0.775c-0.021-0.213-0.193-0.617-0.208-0.831
		c-0.015-0.218,0.095-0.87,0.095-0.87s-0.463-0.383-0.617-0.511c-0.302-0.249-0.918-0.735-1.211-0.995
		c-0.473-0.421-1.393-1.293-1.826-1.752c-0.154-0.164-0.395-0.558-0.58-0.68c-0.26-0.174-0.922-0.215-1.186-0.379
		c-0.324-0.204-0.835-0.799-1.059-1.109c-0.162-0.228-0.338-0.611-0.514-0.992c-0.174-0.373-0.346-0.742-0.508-0.961
		c-0.219-0.299-0.832-0.745-1.045-1.047c-0.258-0.362-0.572-1.203-0.77-1.602c-0.192-0.387-0.528-1.195-0.794-1.537
		c-0.14-0.181-0.481-0.494-0.681-0.605c-0.368-0.205-1.213-0.35-1.613-0.479c-0.273-0.088-0.825-0.254-1.084-0.379
		c-0.147-0.068-0.418-0.252-0.555-0.34c-0.294-0.189-0.839-0.648-1.16-0.794c-0.151-0.067-0.481-0.2-0.643-0.164
		c-0.217,0.051-0.758,0.37-0.68,0.58c0.084,0.228,0.736-0.063,0.97,0c0.229,0.062,0.64,0.324,0.82,0.479
		c0.145,0.123,0.453,0.403,0.479,0.593c0.009,0.069-0.054,0.224-0.114,0.264c-0.178,0.12-0.656,0.085-0.857,0.013
		c-0.133-0.047-0.301-0.305-0.429-0.365c-0.093-0.045-0.302-0.093-0.403-0.075c-0.283,0.047-0.719,0.494-0.997,0.566
		c-0.249,0.066-0.775,0-1.033,0c-0.425,0-1.286-0.092-1.701,0c-0.118,0.026-0.29,0.157-0.444,0.238
		c-0.073,0.038-0.142,0.065-0.199,0.064c-0.168,0-0.457-0.212-0.605-0.29c-0.222-0.115-0.659-0.355-0.869-0.491
		c-0.227-0.146-0.655-0.472-0.87-0.63c-0.19-0.141-0.553-0.447-0.756-0.567c-0.176-0.104-0.543-0.302-0.744-0.341
		c-0.139-0.027-0.426,0.035-0.567,0.025c-0.173-0.012-0.531-0.037-0.681-0.126c-0.223-0.133-0.496-0.602-0.655-0.807
		c-0.284-0.363-0.852-1.092-1.109-1.476c-0.175-0.258-0.496-0.795-0.643-1.07c-0.115-0.216-0.264-0.691-0.416-0.883
		c-0.229-0.285-0.883-0.655-1.16-0.895c-0.249-0.213-0.739-0.653-0.945-0.908c-0.308-0.38-0.816-1.225-1.033-1.663
		c-0.213-0.43-0.535-1.334-0.681-1.79c-0.103-0.32-0.279-0.968-0.34-1.298c-0.087-0.468-0.134-1.422-0.215-1.892
		c-0.078-0.455-0.301-1.354-0.416-1.803c-0.107-0.415-0.374-1.231-0.466-1.65c-0.101-0.449-0.22-1.333-0.308-1.851
		c-0.006-0.04-0.013-0.079-0.02-0.115c-0.131-0.722-0.378-2.167-0.567-2.873c-0.14-0.525-0.595-1.522-0.693-2.056
		c-0.07-0.378-0.055-1.152-0.063-1.537c-0.01-0.459,0.204-1.428,0-1.84c-0.081-0.164-0.499-0.278-0.579-0.441
		c-0.094-0.19,0.047-0.639,0-0.845c-0.067-0.287-0.376-0.8-0.518-1.059c-0.104-0.192-0.298-0.592-0.454-0.744
		c-0.094-0.093-0.327-0.295-0.454-0.265c-0.091,0.022-0.179,0.225-0.201,0.315c-0.033,0.129,0.017,0.399,0.038,0.53
		c0.012,0.078,0.065,0.232,0.076,0.314c0.011,0.1-0.056,0.318,0,0.403c0.042,0.062,0.232,0.054,0.277,0.114
		c0.059,0.078,0.08,0.301,0.038,0.39c-0.052,0.108-0.283,0.25-0.403,0.265c-0.109,0.013-0.322-0.094-0.416-0.151
		c-0.117-0.072-0.284-0.308-0.403-0.378c-0.128-0.076-0.485-0.064-0.567-0.189c-0.062-0.094,0.066-0.343,0.038-0.453
		c-0.081-0.314-0.606-0.778-0.719-1.084c-0.06-0.164,0.003-0.545-0.088-0.693c-0.05-0.081-0.233-0.165-0.315-0.215
		c-0.324-0.196-1.13-0.398-1.336-0.719c-0.126-0.197-0.004-0.705-0.063-0.933c-0.084-0.322-0.477-0.888-0.567-1.209
		c-0.047-0.168-0.096-0.521-0.076-0.693c0.021-0.177,0.235-0.491,0.24-0.669c0.003-0.139-0.14-0.393-0.164-0.528
		c-0.03-0.174-0.056-0.53-0.038-0.707c0.011-0.109,0.11-0.316,0.114-0.428c0.011-0.369-0.231-1.085-0.291-1.45
		c-0.048-0.299-0.212-0.907-0.147-1.202c0.02-0.095,0.126-0.265,0.198-0.328c0.083-0.076,0.405-0.079,0.41-0.192
		c0.001-0.059-0.156-0.082-0.205-0.113c-0.111-0.073-0.367-0.199-0.425-0.319c-0.077-0.157-0.031-0.528,0.009-0.699
		c0.024-0.106,0.177-0.288,0.189-0.397c0.01-0.093-0.04-0.284-0.085-0.367c-0.101-0.187-0.456-0.439-0.586-0.605
		c-0.088-0.113-0.285-0.342-0.303-0.482c-0.016-0.125,0.117-0.36,0.151-0.482c0.044-0.154,0.208-0.47,0.161-0.623
		c-0.032-0.105-0.281-0.194-0.331-0.294c-0.046-0.091,0.038-0.337-0.038-0.406c-0.042-0.038-0.178,0.029-0.227,0
		c-0.088-0.055-0.188-0.266-0.188-0.368c-0.002-0.131,0.259-0.346,0.227-0.474c-0.028-0.105-0.249-0.253-0.359-0.255
		c-0.123-0.001-0.285,0.288-0.407,0.274c-0.123-0.015-0.22-0.286-0.332-0.411c-0.032-0.037-0.066-0.061-0.103-0.062
		c-0.079-0.002-0.162,0.173-0.227,0.217c-0.064,0.044-0.207,0.148-0.284,0.132c-0.11-0.021-0.206-0.273-0.303-0.33
		c-0.073-0.043-0.252-0.109-0.331-0.075c-0.126,0.054-0.146,0.472-0.283,0.472c-0.155,0-0.188-0.45-0.322-0.527
		c-0.057-0.035-0.213-0.052-0.264-0.011c-0.108,0.088,0.013,0.461-0.095,0.549c-0.103,0.083-0.397-0.011-0.529-0.019
		c-0.151-0.011-0.47-0.129-0.605-0.059c-0.151,0.082-0.191,0.505-0.331,0.606c-0.138,0.101-0.517,0.207-0.671,0.133
		c-0.107-0.053-0.116-0.362-0.217-0.427c-0.155-0.096-0.556-0.066-0.729-0.009c-0.117,0.04-0.31,0.206-0.387,0.303
		c-0.131,0.159-0.259,0.563-0.369,0.737c-0.082,0.131-0.251,0.401-0.377,0.49c-0.118,0.085-0.405,0.197-0.549,0.181
		c-0.121-0.014-0.295-0.241-0.416-0.255c-0.107-0.013-0.304,0.107-0.407,0.142c-0.108,0.036-0.326,0.165-0.435,0.133
		c-0.103-0.03-0.182-0.276-0.274-0.332c-0.097-0.056-0.34-0.04-0.444-0.084c-0.131-0.056-0.336-0.267-0.463-0.332
		c-0.098-0.05-0.308-0.162-0.416-0.142c-0.131,0.025-0.274,0.369-0.407,0.35c-0.066-0.009-0.104-0.176-0.151-0.227
		c-0.065-0.068-0.238-0.157-0.302-0.227c-0.095-0.104-0.256-0.341-0.303-0.473c-0.059-0.169-0.04-0.535-0.076-0.709
		c-0.022-0.108-0.134-0.314-0.131-0.426c0.002-0.104,0.076-0.309,0.141-0.387c0.083-0.1,0.337-0.193,0.444-0.266
		c0.193-0.127,0.534-0.458,0.747-0.548c0.159-0.066,0.619,0.048,0.681-0.113c0.048-0.124-0.244-0.316-0.331-0.417
		c-0.149-0.171-0.491-0.477-0.624-0.661c-0.118-0.161-0.279-0.531-0.388-0.7c-0.056-0.086-0.216-0.232-0.246-0.33
		c-0.042-0.138,0.088-0.445,0.028-0.576c-0.056-0.122-0.367-0.211-0.426-0.332c-0.068-0.14,0.009-0.468,0-0.622
		c-0.007-0.122-0.02-0.367-0.057-0.482c-0.028-0.089-0.112-0.259-0.18-0.322c-0.07-0.066-0.261-0.128-0.35-0.17
		c-0.078-0.036-0.265-0.069-0.312-0.142c-0.055-0.086,0.029-0.307,0.002-0.41c0-0.001-0.001-0.004-0.002-0.006
		c-0.034-0.1-0.236-0.229-0.255-0.331c-0.034-0.177,0.224-0.513,0.198-0.69c-0.02-0.139-0.263-0.337-0.302-0.472
		c-0.044-0.152,0.032-0.479,0-0.634c-0.028-0.144-0.211-0.395-0.227-0.54c-0.017-0.153,0.019-0.49,0.113-0.613
		c0.071-0.091,0.343-0.109,0.416-0.198c0.073-0.089,0.142-0.333,0.114-0.445c-0.032-0.127-0.344-0.256-0.359-0.387
		s0.229-0.328,0.265-0.454c0.045-0.157,0.084-0.502,0.019-0.652c-0.063-0.144-0.426-0.265-0.473-0.416
		c-0.062-0.202,0.037-0.696,0.208-0.822c0.123-0.089,0.483,0.128,0.605,0.038c0.105-0.078,0.149-0.383,0.123-0.511
		c-0.03-0.138-0.244-0.344-0.34-0.444c-0.106-0.109-0.397-0.256-0.473-0.387c-0.109-0.189-0.186-0.647-0.142-0.861
		c0.045-0.22,0.334-0.588,0.482-0.756c0.1-0.114,0.392-0.256,0.463-0.387c0.061-0.115-0.004-0.397,0.057-0.511
		c0.045-0.085,0.204-0.212,0.293-0.246c0.172-0.065,0.554-0.011,0.737-0.02c0.076-0.003,0.261,0.044,0.302-0.019
		c0.087-0.133-0.083-0.509-0.217-0.596c-0.057-0.037-0.221-0.025-0.274,0.02c-0.032,0.025-0.003,0.138-0.038,0.16
		c-0.092,0.061-0.357,0.002-0.435-0.076c-0.061-0.061-0.002-0.273-0.057-0.34c-0.039-0.045-0.181-0.045-0.227-0.085
		c-0.133-0.112-0.23-0.478-0.35-0.605c-0.089-0.095-0.383-0.172-0.435-0.292c-0.041-0.096,0.085-0.306,0.066-0.407
		c-0.02-0.104-0.211-0.262-0.218-0.368c-0.006-0.12,0.09-0.386,0.199-0.436c0.099-0.045,0.309,0.134,0.416,0.123
		c0.102-0.012,0.256-0.199,0.359-0.198c0.076,0,0.195,0.12,0.265,0.151c0.039,0.018,0.133,0.025,0.16,0.057
		c0.055,0.062,0.012,0.26,0.067,0.322c0.071,0.079,0.306,0.167,0.406,0.131c0.107-0.038,0.135-0.337,0.237-0.388
		c0.154-0.074,0.536,0.168,0.681,0.077c0.154-0.098,0.232-0.509,0.236-0.691c0.003-0.203-0.091-0.641-0.236-0.784
		c-0.081-0.079-0.329-0.085-0.435-0.123c-0.144-0.052-0.458-0.132-0.558-0.245c-0.083-0.094-0.193-0.368-0.142-0.482
		c0.049-0.109,0.315-0.194,0.435-0.208c0.044-0.006,0.132,0.058,0.17,0.038c0.06-0.032,0.114-0.18,0.104-0.246
		c-0.017-0.108-0.204-0.258-0.284-0.33c-0.094-0.089-0.412-0.175-0.416-0.304c-0.004-0.142,0.303-0.308,0.435-0.359
		c0.146-0.056,0.513,0.083,0.624-0.028c0.12-0.117,0.004-0.506,0.038-0.67c0.049-0.234,0.209-0.693,0.331-0.899
		c0.137-0.232,0.464-0.698,0.708-0.812c0.112-0.052,0.369,0.001,0.492-0.009c0.098-0.009,0.324,0.017,0.388-0.058
		c0.041-0.048,0.032-0.2,0-0.255c-0.048-0.078-0.277-0.091-0.322-0.17c-0.026-0.046-0.008-0.159,0.009-0.209
		c0.051-0.15,0.268-0.396,0.368-0.52c0.129-0.158,0.439-0.43,0.559-0.595c0.127-0.178,0.391-0.55,0.415-0.766
		c0.02-0.163-0.164-0.47-0.169-0.634c-0.005-0.157-0.013-0.536,0.123-0.614c0.116-0.067,0.4,0.247,0.511,0.169
		c0.083-0.057-0.031-0.312,0.009-0.406c0.03-0.067,0.135-0.212,0.208-0.207c0.118,0.007,0.277,0.252,0.293,0.368
		c0.015,0.104-0.212,0.296-0.16,0.388c0.083,0.147,0.522,0.176,0.67,0.096c0.195-0.109,0.416-0.597,0.369-0.814
		c-0.063-0.288-0.796-0.494-0.889-0.774c-0.038-0.112-0.002-0.294,0.05-0.469c0.046-0.153,0.105-0.303,0.139-0.401
		c0.066-0.191,0.323-0.527,0.359-0.728c0.03-0.173,0.011-0.54-0.076-0.69c-0.048-0.083-0.256-0.149-0.312-0.227
		c-0.111-0.153-0.222-0.53-0.236-0.719c-0.012-0.158,0.055-0.475,0.104-0.625c0.071-0.215,0.273-0.627,0.407-0.812
		c0.102-0.139,0.325-0.438,0.492-0.482c0.087-0.021,0.275,0.044,0.35,0.096c0.088,0.062,0.143,0.322,0.246,0.349
		c0.09,0.025,0.279-0.087,0.34-0.16c0.083-0.097,0.141-0.363,0.142-0.49c0.001-0.175-0.138-0.505-0.189-0.672
		c-0.065-0.217-0.238-0.639-0.283-0.86c-0.036-0.177-0.146-0.562-0.057-0.719c0.063-0.108,0.371-0.121,0.454-0.218
		c0.131-0.149,0.126-0.597,0.246-0.756c0.073-0.098,0.347-0.167,0.406-0.273c0.106-0.19-0.027-0.663,0.038-0.871
		c0.029-0.093,0.175-0.239,0.208-0.33c0.074-0.204,0.067-0.649,0.113-0.86c0.042-0.188,0.133-0.569,0.227-0.737
		c0.054-0.096,0.227-0.242,0.293-0.331c0.224-0.295,0.649-0.91,0.803-1.248c0.088-0.192,0.154-0.618,0.237-0.812
		c0.099-0.234,0.334-0.688,0.501-0.879c0.178-0.202,0.616-0.537,0.86-0.653c0.099-0.046,0.37-0.008,0.425-0.103
		c0.061-0.102-0.177-0.351-0.123-0.455c0.025-0.049,0.175-0.03,0.208-0.074c0.073-0.1-0.009-0.375,0.028-0.492
		c0.032-0.104,0.176-0.273,0.227-0.369c0.047-0.088,0.148-0.27,0.169-0.368c0.019-0.087,0.036-0.27,0-0.35
		c-0.046-0.106-0.291-0.208-0.34-0.312c-0.038-0.081-0.039-0.271-0.019-0.359c0.052-0.222,0.33-0.597,0.444-0.794
		c0.145-0.248,0.433-0.746,0.595-0.983c0.16-0.233,0.496-0.692,0.69-0.896c0.242-0.256,0.813-0.676,1.068-0.919
		c0.097-0.091,0.335-0.258,0.368-0.387c0.043-0.168-0.214-0.5-0.179-0.671c0.011-0.056,0.106-0.135,0.142-0.18
		c0.113-0.142,0.297-0.476,0.454-0.567c0.108-0.062,0.411,0.019,0.492-0.075c0.1-0.117,0.081-0.483,0-0.614
		c-0.058-0.095-0.327-0.113-0.397-0.199c-0.099-0.122-0.072-0.477-0.161-0.605c-0.104-0.15-0.509-0.271-0.595-0.435
		c-0.046-0.087-0.088-0.335-0.01-0.396c0.102-0.081,0.393,0.204,0.501,0.132c0.163-0.107-0.005-0.613,0.104-0.775
		c0.033-0.047,0.171-0.063,0.199-0.112c0.112-0.198,0.073-0.701-0.019-0.909c-0.038-0.084-0.238-0.167-0.274-0.254
		c-0.062-0.151,0.073-0.495,0.028-0.652c-0.041-0.146-0.281-0.361-0.34-0.501c-0.045-0.106-0.1-0.338-0.095-0.454
		c0.007-0.136,0.164-0.384,0.161-0.52c-0.002-0.123-0.189-0.344-0.161-0.463c0.02-0.08,0.206-0.151,0.237-0.229
		c0.055-0.135-0.037-0.44-0.019-0.585c0.011-0.091,0.051-0.22,0.094-0.349c0.051-0.156,0.107-0.318,0.123-0.427
		c0.1-0.697,0.044-2.112,0.029-2.817c-0.004-0.172-0.059-0.518-0.038-0.689c0.023-0.193,0.108-0.593,0.227-0.747
		c0.073-0.096,0.336-0.158,0.406-0.256c0.142-0.195,0.217-0.695,0.236-0.935c0.024-0.293-0.185-0.89-0.104-1.173
		c0.066-0.23,0.438-0.57,0.577-0.765c0.099-0.14,0.254-0.451,0.378-0.568c0.084-0.08,0.342-0.135,0.397-0.236
		c0.06-0.109,0.051-0.396-0.019-0.501c-0.085-0.127-0.479-0.123-0.558-0.256c-0.108-0.181,0.057-0.63,0.057-0.841
		c0-0.201,0.039-0.627-0.057-0.803c-0.138-0.256-0.668-0.566-0.926-0.699c-0.071-0.037-0.25-0.035-0.303-0.095
		c-0.101-0.114-0.024-0.473-0.114-0.597c-0.077-0.106-0.365-0.164-0.463-0.255c-0.091-0.084-0.218-0.246-0.313-0.402
		c-0.056-0.092-0.101-0.181-0.121-0.25c-0.047-0.155-0.088-0.521,0.009-0.652c0.072-0.099,0.346-0.116,0.463-0.151
		c0.124-0.035,0.406-0.035,0.501-0.123c0.122-0.113,0.148-0.479,0.208-0.633c0.063-0.164,0.156-0.522,0.284-0.643
		c0.125-0.118,0.512-0.126,0.643-0.236c0.129-0.108,0.193-0.501,0.34-0.587c0.014-0.007,0.03-0.014,0.048-0.017
		c0.135-0.032,0.372,0.029,0.49,0.017c0.317-0.031,0.942-0.166,1.248-0.255c0.315-0.091,0.957-0.279,1.229-0.464
		c0.18-0.122,0.534-0.432,0.586-0.642c0.042-0.166-0.315-0.571-0.17-0.662c0.131-0.082,0.352,0.301,0.473,0.396
		c0.158,0.127,0.451,0.427,0.643,0.492c0.246,0.083,0.78,0,1.04,0c0.209,0,0.54,0.012,0.851,0.014
		c0.238,0.003,0.465,0.001,0.624-0.014c0.067-0.008,0.153-0.021,0.247-0.039c0.222-0.041,0.486-0.102,0.642-0.131
		c0.241-0.045,0.731-0.096,0.964-0.17c0.165-0.055,0.513-0.169,0.624-0.303c0.094-0.113,0.142-0.421,0.151-0.567
		c0.009-0.142-0.114-0.43-0.076-0.567c0.024-0.087,0.139-0.308,0.227-0.283c0.184,0.051-0.001,0.592,0.095,0.756
		c0.047,0.082,0.239,0.157,0.303,0.227c0.124,0.14,0.242,0.517,0.378,0.643c0.224,0.21,0.799,0.48,1.096,0.549
		c0.249,0.059,0.768-0.022,1.021,0c0.354,0.03,1.046,0.215,1.399,0.246c0.244,0.021,0.736-0.04,0.979-0.001
		c0.001,0,0.002,0.001,0.004,0.001c0.301,0.051,0.863,0.49,1.153,0.396c0.132-0.042,0.205-0.379,0.322-0.453
		c0.17-0.109,0.646-0.014,0.794-0.151c0.068-0.062,0.035-0.288,0.095-0.359c0.077-0.093,0.328-0.264,0.435-0.208
		c0.131,0.069,0.151,0.449,0.094,0.587c-0.063,0.151-0.392,0.311-0.539,0.387c-0.009,0.005-0.019,0.008-0.029,0.013
		c-0.098,0.033-0.278,0.042-0.33,0.11c-0.111,0.145-0.099,0.553-0.048,0.728c0.038,0.127,0.288,0.296,0.312,0.426
		c0.038,0.197-0.069,0.623-0.199,0.774c-0.094,0.11-0.409,0.147-0.53,0.228c-0.228,0.152-0.638,0.535-0.784,0.765
		c-0.046,0.075-0.116,0.245-0.113,0.332c0.006,0.223,0.298,0.604,0.34,0.822c0.037,0.188-0.001,0.575-0.009,0.766
		c-0.007,0.173,0.016,0.53-0.047,0.69c-0.062,0.157-0.404,0.361-0.425,0.529c-0.013,0.097,0.172,0.262,0.161,0.358
		c-0.013,0.107-0.177,0.279-0.265,0.341c-0.102,0.073-0.397,0.062-0.473,0.16c-0.069,0.093-0.1,0.373-0.028,0.464
		c0.055,0.07,0.265,0.031,0.35,0.057c0.08,0.025,0.246,0.081,0.303,0.143c0.115,0.124,0.21,0.466,0.236,0.632
		c0.026,0.169,0.004,0.514-0.028,0.682c-0.027,0.138-0.081,0.439-0.189,0.53c-0.073,0.06-0.313-0.015-0.377,0.056
		c-0.125,0.136,0.054,0.584-0.047,0.736c-0.053,0.08-0.316,0.079-0.34,0.172c-0.042,0.159,0.302,0.396,0.368,0.549
		c0.05,0.112,0.083,0.361,0.113,0.48c0.024,0.096,0.048,0.299,0.104,0.379c0.051,0.074,0.248,0.131,0.292,0.208
		c0.073,0.126,0.05,0.432,0.057,0.577c0.007,0.119,0.068,0.382,0,0.481c-0.053,0.079-0.293,0.07-0.358,0.142
		c-0.059,0.063-0.024,0.299-0.104,0.332c-0.13,0.054-0.373-0.312-0.501-0.256c-0.116,0.052-0.069,0.381-0.133,0.49
		c-0.065,0.115-0.332,0.253-0.368,0.379c-0.041,0.141,0.033,0.46,0.123,0.576c0.049,0.066,0.271,0.072,0.293,0.151
		c0.019,0.069-0.17,0.177-0.152,0.246c0.019,0.067,0.212,0.071,0.246,0.133c0.04,0.069-0.059,0.251-0.019,0.32
		c0.05,0.088,0.259,0.173,0.359,0.18c0.121,0.01,0.343-0.133,0.463-0.151c0.159-0.022,0.524-0.1,0.642,0.011
		c0.057,0.052,0.058,0.231,0.028,0.302c-0.05,0.122-0.414,0.2-0.406,0.331c0.009,0.146,0.37,0.244,0.501,0.312
		c0.134,0.069,0.419,0.298,0.557,0.235c0.087-0.039,0.129-0.264,0.123-0.358c-0.009-0.132-0.196-0.346-0.236-0.474
		c-0.02-0.062-0.084-0.216-0.038-0.264c0.127-0.132,0.545,0.089,0.728,0.075c0.02-0.002,0.04-0.004,0.063-0.007
		c0.169-0.028,0.426-0.11,0.561-0.153c0.125-0.041,0.375-0.129,0.492-0.189c0.116-0.059,0.306-0.273,0.435-0.284
		c0.186-0.016,0.501,0.259,0.681,0.303c0.221,0.054,0.682,0.031,0.908,0.058c0.423,0.046,1.271,0.154,1.682,0.264
		c0.457,0.121,1.328,0.498,1.768,0.672c0.173,0.067,0.525,0.195,0.69,0.284c0.156,0.082,0.424,0.455,0.586,0.387
		c0.12-0.05,0.041-0.396,0.104-0.511c0.067-0.119,0.27-0.329,0.397-0.379c0.164-0.062,0.546,0.104,0.7,0.021
		c0.088-0.048,0.109-0.326,0.208-0.342c0.125-0.018,0.259,0.292,0.378,0.332c0.209,0.068,0.698,0.05,0.879-0.075
		c0.105-0.073,0.114-0.389,0.217-0.465c0.118-0.085,0.436-0.112,0.577-0.074c0.095,0.024,0.22,0.204,0.312,0.235
		c0.135,0.047,0.451,0.101,0.566,0.019c0.104-0.069,0.094-0.366,0.162-0.473c0.121-0.188,0.451-0.515,0.651-0.614
		c0.134-0.064,0.438-0.078,0.587-0.094c0.205-0.021,0.624-0.094,0.822-0.039c0.166,0.049,0.4,0.257,0.589,0.402
		c0.058,0.045,0.112,0.083,0.157,0.109c0.168,0.095,0.551,0.2,0.699,0.321c0.105,0.086,0.292,0.304,0.322,0.435
		c0.03,0.136-0.156,0.42-0.104,0.549c0.053,0.132,0.325,0.295,0.464,0.33c0.115,0.029,0.388-0.14,0.473-0.058
		c0.066,0.066,0.03,0.308-0.038,0.37c-0.066,0.061-0.315-0.078-0.359,0c-0.067,0.123,0.188,0.383,0.294,0.473
		c0.112,0.098,0.398,0.229,0.547,0.236c0.1,0.005,0.336-0.032,0.379-0.123c0.049-0.105-0.15-0.319-0.17-0.436
		c-0.02-0.109-0.043-0.346,0.009-0.443c0.059-0.109,0.292-0.331,0.407-0.283c0.096,0.039,0.057,0.305,0.075,0.405
		c0.019,0.099,0.101,0.3,0.075,0.397c-0.016,0.062-0.156,0.135-0.16,0.199c-0.006,0.09,0.1,0.298,0.189,0.312
		c0.061,0.009,0.133-0.135,0.188-0.162c0.037-0.017,0.123-0.043,0.16-0.027c0.123,0.049,0.204,0.35,0.312,0.424
		c0.038,0.026,0.14,0.025,0.18,0.048c0.124,0.075,0.254,0.399,0.397,0.426c0.062,0.012,0.205-0.054,0.227-0.113
		c0.031-0.09-0.09-0.279-0.161-0.341c-0.069-0.059-0.285-0.039-0.349-0.104c-0.072-0.071-0.179-0.311-0.114-0.389
		c0.036-0.043,0.179,0.051,0.228,0.02c0.076-0.049,0.049-0.288,0.122-0.34c0.132-0.092,0.529-0.113,0.644,0
		c0.07,0.07,0.057,0.315,0,0.396c-0.058,0.081-0.361,0.035-0.369,0.133c-0.006,0.073,0.185,0.123,0.255,0.142
		c0.119,0.031,0.383,0.057,0.492,0c0.068-0.036,0.101-0.251,0.179-0.256c0.076-0.004,0.187,0.153,0.199,0.228
		c0.018,0.111-0.098,0.331-0.171,0.416c-0.046,0.055-0.208,0.089-0.245,0.151c-0.044,0.074,0.049,0.289-0.02,0.341
		c-0.102,0.077-0.412-0.197-0.5-0.104c-0.082,0.084,0.034,0.366,0.113,0.453c0.077,0.086,0.343,0.088,0.435,0.158
		c0.096,0.073,0.181,0.323,0.276,0.397c0.117,0.087,0.48,0.066,0.549,0.195c0.084,0.158-0.293,0.556-0.176,0.692
		c0.104,0.121,0.493-0.128,0.637-0.056c0.101,0.05,0.154,0.308,0.238,0.385c0.051,0.044,0.19,0.068,0.24,0.113
		c0.102,0.088,0.2,0.353,0.289,0.453c0.107,0.119,0.361,0.325,0.499,0.409c0.082,0.05,0.282,0.087,0.353,0.151
		c0.103,0.094,0.145,0.42,0.265,0.492c0.104,0.061,0.411,0.094,0.485,0c0.073-0.094-0.097-0.344-0.113-0.461
		c-0.01-0.067,0.004-0.211-0.014-0.276c-0.03-0.125-0.125-0.376-0.22-0.46c-0.048-0.045-0.208-0.035-0.245-0.089
		c-0.063-0.089,0.055-0.342,0-0.435c-0.062-0.104-0.303-0.216-0.424-0.233c-0.1-0.016-0.314,0.142-0.396,0.082
		c-0.096-0.071-0.01-0.358-0.044-0.474c-0.015-0.047-0.104-0.127-0.095-0.177c0.017-0.085,0.189-0.183,0.266-0.227
		c0.059-0.033,0.197-0.12,0.258-0.087c0.084,0.045,0.024,0.302,0.094,0.365c0.053,0.046,0.208,0.047,0.278,0.045
		c0.082-0.004,0.251-0.038,0.321-0.084c0.078-0.049,0.154-0.24,0.232-0.289c0.068-0.041,0.265-0.134,0.309-0.069
		c0.064,0.094-0.182,0.288-0.252,0.378c-0.041,0.053-0.158,0.138-0.176,0.201c-0.031,0.106-0.012,0.361,0.069,0.436
		c0.053,0.048,0.229,0.065,0.284,0.02s0.009-0.217,0.031-0.284c0.034-0.108,0.125-0.335,0.221-0.396
		c0.053-0.035,0.205-0.068,0.252-0.026c0.049,0.046,0.018,0.201,0,0.265c-0.022,0.081-0.119,0.225-0.17,0.291
		c-0.053,0.067-0.205,0.167-0.24,0.245c-0.055,0.127-0.021,0.412-0.031,0.549c-0.008,0.127-0.068,0.382-0.038,0.504
		c0.038,0.148,0.178,0.488,0.328,0.516c0.187,0.035,0.472-0.322,0.611-0.453c0.075-0.069,0.279-0.211,0.271-0.314
		c-0.012-0.144-0.418-0.229-0.441-0.372c-0.01-0.065,0.077-0.203,0.139-0.228c0.102-0.038,0.322,0.073,0.416,0.127
		c0.038,0.021,0.089,0.053,0.143,0.088c0.125,0.085,0.263,0.198,0.286,0.296c0.025,0.104-0.09,0.31-0.151,0.397
		c-0.074,0.106-0.293,0.256-0.391,0.34c-0.112,0.098-0.334,0.297-0.453,0.385c-0.102,0.077-0.305,0.247-0.429,0.277
		c-0.163,0.041-0.53-0.15-0.669-0.057c-0.085,0.058-0.158,0.301-0.119,0.396c0.058,0.141,0.436,0.172,0.529,0.292
		c0.073,0.093,0.146,0.342,0.119,0.459c-0.025,0.118-0.3,0.256-0.309,0.378c-0.008,0.132,0.168,0.376,0.277,0.447
		c0.119,0.076,0.424,0.123,0.555,0.076c0.086-0.031,0.167-0.222,0.246-0.265c0.086-0.047,0.287-0.077,0.384-0.07
		c0.129,0.011,0.38,0.104,0.486,0.177c0.131,0.089,0.272,0.42,0.422,0.473c0.116,0.041,0.362-0.084,0.485-0.082
		c0.139,0.004,0.432,0.037,0.542,0.119c0.09,0.069,0.122,0.334,0.214,0.398c0.152,0.104,0.549,0.068,0.731,0.094
		c0.093,0.014,0.292,0.007,0.372,0.057c0.146,0.092,0.326,0.409,0.396,0.566c0.042,0.093,0.08,0.292,0.094,0.392
		c0.021,0.136-0.045,0.431,0.025,0.549c0.068,0.11,0.322,0.285,0.448,0.259c0.093-0.021,0.204-0.216,0.221-0.311
		c0.018-0.098-0.048-0.299-0.101-0.384c-0.061-0.098-0.297-0.198-0.348-0.302c-0.064-0.135-0.018-0.449-0.031-0.598
		c-0.014-0.172-0.154-0.526-0.082-0.684c0.039-0.082,0.309-0.108,0.309-0.2c0.001-0.072-0.201-0.101-0.238-0.164
		c-0.055-0.091-0.103-0.338-0.039-0.422c0.048-0.062,0.234-0.037,0.31-0.056c0.069-0.021,0.216-0.056,0.271-0.102
		c0.087-0.072,0.139-0.334,0.238-0.386c0.055-0.026,0.209-0.031,0.24,0.02c0.046,0.076-0.136,0.239-0.139,0.328
		s0.064,0.265,0.12,0.335c0.094,0.117,0.428,0.197,0.504,0.326c0.047,0.082,0.071,0.296,0.025,0.379
		c-0.059,0.105-0.43,0.105-0.429,0.227c0.002,0.263,0.716,0.332,0.933,0.48c0.318,0.213,0.887,0.737,1.16,1.008
		c0.162,0.16,0.5,0.478,0.604,0.681c0.075,0.143,0.142,0.467,0.151,0.63c0.012,0.209-0.099,0.621-0.102,0.832
		c-0.003,0.265-0.033,0.829,0.102,1.058c0.147,0.25,0.761,0.442,0.958,0.655c0.163,0.177,0.329,0.645,0.479,0.833
		c0.161,0.202,0.613,0.489,0.757,0.706c0.152,0.229,0.303,0.768,0.377,1.033c0.068,0.237-0.045,0.972,0.202,0.971
		c0.371-0.003,0.384-1.099,0.284-1.457c-0.096-0.344-0.748-0.773-0.965-1.059c-0.178-0.235-0.486-0.74-0.624-1.002
		c-0.126-0.242-0.376-0.735-0.435-1.002c-0.035-0.161,0.062-0.518-0.019-0.662c-0.104-0.188-0.601-0.293-0.72-0.473
		c-0.16-0.244-0.184-0.861-0.207-1.153c-0.016-0.202,0.075-0.617,0.02-0.812c-0.141-0.489-1.04-1.198-1.116-1.701
		c-0.027-0.185,0.179-0.533,0.208-0.719c0.049-0.309,0.018-0.937,0.037-1.247c0.031-0.438,0.008-1.341,0.189-1.74
		c0.11-0.24,0.602-0.538,0.719-0.775c0.111-0.223,0.299-0.769,0.17-0.983c-0.115-0.191-0.694-0.122-0.85-0.283
		c-0.209-0.216-0.133-0.937-0.341-1.153c-0.114-0.118-0.515-0.085-0.624-0.207c-0.125-0.142-0.039-0.587-0.151-0.738
		c-0.177-0.235-0.811-0.364-1.04-0.547c-0.228-0.184-0.495-0.76-0.756-0.891c-0.141-0.067-0.473,0.002-0.624-0.036
		c-0.248-0.064-0.79-0.221-0.927-0.436c-0.137-0.216-0.114-0.688-0.06-1.05c0.019-0.121,0.039-0.229,0.06-0.312
		c0.086-0.342,0.688-0.894,0.662-1.247c-0.023-0.328-0.784-0.73-0.775-1.059c0.006-0.2,0.503-0.423,0.511-0.624
		c0.016-0.396-0.867-0.909-0.907-1.305c-0.033-0.321,0.6-0.88,0.51-1.191c-0.046-0.16-0.441-0.249-0.548-0.377
		c-0.155-0.188-0.235-0.707-0.397-0.889c-0.127-0.145-0.532-0.254-0.661-0.397c-0.231-0.255-0.479-0.921-0.587-1.247
		c-0.127-0.389-0.189-1.22-0.32-1.607c-0.08-0.234-0.355-0.654-0.436-0.89c-0.008-0.021-0.016-0.045-0.023-0.069
		c-0.107-0.326-0.273-0.898-0.241-1.197c0.023-0.221,0.36-0.591,0.359-0.812c-0.001-0.208-0.327-0.55-0.341-0.756
		c-0.017-0.262,0.324-0.74,0.303-1.002c-0.018-0.226-0.418-0.589-0.396-0.813c0.027-0.288,0.419-0.853,0.699-0.927
		c0.369-0.097,1.021,0.553,1.399,0.605c0.509,0.071,1.649,0.068,2.042-0.265c0.113-0.097,0.067-0.46,0.17-0.568
		c0.214-0.225,1.145-0.105,1.172-0.415c0.024-0.275-0.773-0.346-0.965-0.548c-0.183-0.196-0.572-0.716-0.473-0.965
		c0.164-0.407,1.248-0.42,1.646-0.604c0.415-0.194,1.358-0.513,1.588-0.907c0.101-0.173-0.081-0.614,0-0.795
		c0.07-0.155,0.429-0.304,0.511-0.453c0.146-0.269,0.058-0.935,0.189-1.21c0.163-0.346,0.734-0.882,1.021-1.135
		c0.376-0.333,1.466-0.685,1.646-1.152c0.133-0.351-0.482-1.111-0.341-1.457c0.109-0.268,0.829-0.378,0.983-0.625
		c0.067-0.106,0.064-0.319,0.066-0.512c0.002-0.116,0.005-0.227,0.027-0.3c0.061-0.194,0.217-0.596,0.378-0.718
		c0.281-0.215,1.094-0.098,1.381-0.303c0.216-0.154,0.372-0.711,0.548-0.909c0.227-0.253,0.777-0.67,1.078-0.831
		c0.237-0.126,0.757-0.289,1.021-0.34c0.235-0.047,0.681,0.009,0.995-0.026c0.083-0.009,0.157-0.023,0.215-0.05
		c0.185-0.079,0.395-0.491,0.586-0.548c0.419-0.124,1.29,0.374,1.721,0.302c0.271-0.044,0.735-0.376,0.965-0.529
		c0.1-0.066,0.258-0.283,0.377-0.302c0.217-0.033,0.598,0.354,0.813,0.321c0.384-0.058,0.849-0.824,1.21-0.965
		c0.218-0.083,0.695-0.074,0.927-0.057c0.218,0.018,0.655,0.287,0.851,0.189c0.103-0.051,0.11-0.334,0.189-0.415
		c0.117-0.122,0.443-0.354,0.605-0.303c0.239,0.076,0.283,0.724,0.472,0.888c0.175,0.153,0.649,0.25,0.87,0.322
		c0.299,0.097,0.898,0.378,1.21,0.34c0.173-0.02,0.437-0.384,0.604-0.34c0.15,0.038,0.199,0.436,0.321,0.529
		c0.259,0.197,0.956,0.498,1.249,0.358c0.152-0.073,0.11-0.554,0.264-0.623c0.141-0.064,0.433,0.192,0.587,0.188
		c0.12-0.002,0.339-0.211,0.453-0.17c0.218,0.076,0.246,0.753,0.473,0.795c0.194,0.034,0.422-0.187,0.64-0.422
		c0.173-0.188,0.34-0.387,0.477-0.469c0.189-0.111,0.594-0.316,0.812-0.34c0.25-0.024,0.742,0.258,0.982,0.19
		c0.242-0.069,0.486-0.674,0.737-0.683c0.172-0.004,0.36,0.412,0.53,0.437c0.245,0.033,0.66-0.415,0.907-0.397
		c0.305,0.021,0.747,0.557,1.04,0.644c0.24,0.069,0.754-0.02,1.002,0.019c0.418,0.063,1.215,0.574,1.626,0.473
		c0.179-0.045,0.349-0.476,0.529-0.511c0.335-0.064,0.954,0.647,1.267,0.511c0.246-0.107,0.219-0.787,0.379-1.002
		c0.156-0.211,0.57-0.617,0.832-0.644c0.298-0.029,0.791,0.623,1.077,0.53c0.126-0.043,0.114-0.455,0.245-0.473
		c0.186-0.025,0.324,0.528,0.511,0.547c0.397,0.041,0.911-0.992,1.305-0.926c0.224,0.038,0.316,0.659,0.529,0.738
		c0.005,0.002,0.009,0.002,0.014,0.004c0.206,0.056,0.611-0.245,0.818-0.212c0.312,0.048,0.774,0.573,1.077,0.661
		c0.291,0.084,1.001-0.199,1.211,0.02c0.131,0.135,0.026,0.571-0.02,0.756c-0.043,0.173-0.387,0.476-0.321,0.643
		c0.048,0.123,0.397,0.097,0.491,0.188c0.26,0.259,0.276,1.099,0.529,1.361c0.189,0.197,0.729,0.442,1.002,0.436
		c0.328-0.009,0.973-0.325,1.173-0.585c0.2-0.263,0.132-0.986,0.265-1.287c0.084-0.191,0.301-0.594,0.491-0.681
		c0.194-0.089,0.794,0.075,0.851,0.075s0.191-0.352,0.303-0.415c0.123-0.071,0.439,0.06,0.567,0c0.247-0.115,0.433-0.78,0.699-0.833
		c0.169-0.031,0.437,0.346,0.604,0.322c0.322-0.043,0.651-0.754,0.946-0.89c0.208-0.094,0.748,0.069,0.907-0.094
		c0.119-0.121-0.006-0.521,0.057-0.681c0.062-0.156,0.307-0.401,0.416-0.529c0.176-0.202,0.587-0.555,0.737-0.775
		c0.126-0.186,0.352-0.59,0.378-0.813c0.036-0.291-0.176-0.862-0.227-1.153c-0.043-0.244-0.137-0.734-0.151-0.982
		c-0.019-0.312,0.077-0.938,0.038-1.248c-0.03-0.234-0.239-0.673-0.265-0.906c-0.015-0.138-0.049-0.443,0.038-0.549
		c0.107-0.133,0.558-0.051,0.661-0.189c0.114-0.151-0.071-0.58,0-0.756c0.077-0.188,0.547-0.379,0.573-0.579
		c0.037-0.285-0.658-0.725-0.566-0.996c0.078-0.234,0.797-0.171,0.907-0.392c0.056-0.109-0.058-0.369-0.114-0.479
		c-0.194-0.379-0.793-1.013-1.121-1.285c-0.312-0.262-1.225-0.466-1.398-0.832c-0.168-0.351,0.059-1.188,0.227-1.538
		c0.142-0.298,0.633-0.77,0.895-0.971c0.273-0.211,1.059-0.338,1.223-0.643c0.063-0.117,0.021-0.417-0.051-0.53
		c-0.092-0.146-0.432-0.289-0.592-0.352c-0.285-0.113-1.009-0.023-1.197-0.266c-0.142-0.182-0.106-0.73,0.025-0.92
		c0.126-0.181,0.613-0.247,0.818-0.327c0.225-0.087,0.707-0.193,0.896-0.341c0.104-0.08,0.259-0.305,0.303-0.428
		c0.102-0.289,0.061-0.918,0.075-1.224c0.01-0.188-0.016-0.572,0.025-0.756C155.229,94.407,155.634,93.825,155.697,93.49z
		 M25.287,229.282c-0.006-0.006-0.012-0.008-0.019-0.014c0.007,0.006,0.014,0.01,0.021,0.014
		C25.288,229.282,25.288,229.282,25.287,229.282z"/>
	<path fill="#2BB673" d="M77.688,152.579c-0.029-0.115-0.295-0.202-0.402-0.252c-0.069-0.031-0.224-0.125-0.29-0.089
		c-0.08,0.044-0.08,0.263-0.088,0.353c-0.008,0.08,0.041,0.242,0.013,0.316c-0.028,0.07-0.192,0.143-0.215,0.213
		c-0.037,0.119-0.001,0.406,0.089,0.492c0.078,0.075,0.347,0.136,0.428,0.063c0.104-0.092-0.106-0.453-0.012-0.556
		c0.07-0.075,0.362,0.064,0.416-0.024c0.032-0.053-0.104-0.164-0.102-0.227C77.529,152.786,77.709,152.659,77.688,152.579z"/>
	<path fill="#2BB673" d="M98.813,169.683c-0.05-0.092,0.062-0.331,0-0.416c-0.056-0.075-0.299-0.04-0.359-0.114
		c-0.073-0.087-0.026-0.343-0.057-0.453c-0.038-0.135-0.095-0.467-0.228-0.511c-0.072-0.022-0.215,0.094-0.264,0.152
		c-0.067,0.076-0.14,0.276-0.152,0.378c-0.022,0.195,0.235,0.622,0.113,0.774c-0.066,0.087-0.359-0.04-0.434,0.038
		c-0.124,0.131-0.095,0.556-0.02,0.718c0.084,0.184,0.573,0.316,0.623,0.512c0.021,0.073-0.05,0.241-0.113,0.283
		c-0.054,0.037-0.214-0.044-0.264,0c-0.083,0.073-0.125,0.349-0.057,0.436c0.072,0.094,0.375-0.012,0.473,0.056
		c0.164,0.116,0.188,0.617,0.359,0.72c0.118,0.069,0.471,0.094,0.548-0.02c0.101-0.149-0.29-0.506-0.245-0.681
		c0.025-0.104,0.293-0.18,0.32-0.284c0.047-0.173-0.319-0.527-0.227-0.68c0.048-0.078,0.301,0.012,0.359-0.058
		c0.098-0.114,0.072-0.472,0-0.604C99.138,169.829,98.867,169.782,98.813,169.683z"/>
	<path fill="#2BB673" d="M96.865,167.018c-0.131-0.046-0.318-0.355-0.453-0.322c-0.062,0.016-0.063,0.188-0.113,0.228
		c-0.064,0.051-0.268,0.012-0.322,0.076c-0.049,0.057-0.074,0.25-0.019,0.302c0.081,0.075,0.33-0.088,0.436-0.056
		c0.112,0.033,0.243,0.32,0.358,0.301c0.072-0.01,0.086-0.215,0.152-0.245c0.064-0.03,0.221,0.075,0.283,0.038
		c0.068-0.042,0.158-0.236,0.113-0.303C97.24,166.945,96.969,167.052,96.865,167.018z"/>
	<path fill="#2BB673" d="M95.542,163.633c-0.119-0.195-0.187-0.68-0.34-0.852c-0.132-0.148-0.579-0.22-0.7-0.378
		c-0.15-0.195-0.086-0.76-0.227-0.963c-0.123-0.18-0.51-0.428-0.719-0.492c-0.197-0.061-0.639,0.08-0.832,0
		c-0.098-0.04-0.195-0.318-0.301-0.303c-0.153,0.023-0.307,0.396-0.285,0.549c0.025,0.168,0.402,0.336,0.473,0.491
		c0.08,0.173-0.018,0.591,0.076,0.756c0.047,0.083,0.26,0.143,0.303,0.227c0.08,0.161,0.024,0.541,0,0.719
		c-0.017,0.123-0.143,0.352-0.133,0.474c0.016,0.191,0.131,0.678,0.322,0.699c0.117,0.012,0.182-0.318,0.283-0.379
		c0.062-0.036,0.213-0.049,0.283-0.037c0.203,0.033,0.535,0.389,0.737,0.359c0.083-0.013,0.237-0.145,0.246-0.228
		c0.007-0.064-0.132-0.147-0.151-0.208c-0.053-0.162-0.134-0.576,0-0.681c0.077-0.059,0.312,0.023,0.378,0.095
		c0.114,0.124,0.028,0.518,0.114,0.662c0.113,0.191,0.48,0.583,0.699,0.549c0.135-0.022,0.312-0.318,0.303-0.455
		C96.059,164.038,95.648,163.805,95.542,163.633z"/>
	<path fill="#2BB673" d="M62.806,145.331c-0.025-0.058-0.17-0.091-0.208-0.142c-0.066-0.089-0.029-0.385-0.133-0.425
		c-0.082-0.031-0.218,0.153-0.302,0.179c-0.072,0.023-0.248-0.033-0.302,0.019c-0.067,0.064-0.081,0.288-0.039,0.369
		c0.031,0.058,0.186,0.073,0.227,0.123c0.036,0.045,0.031,0.174,0.066,0.218c0.039,0.048,0.17,0.081,0.217,0.122
		c0.041,0.036,0.081,0.154,0.132,0.171c0.096,0.031,0.35-0.021,0.388-0.114c0.021-0.048-0.095-0.136-0.104-0.188
		C62.735,145.579,62.839,145.409,62.806,145.331z"/>
	<path fill="#2BB673" d="M65.16,141.928c0.097-0.045,0.208-0.269,0.208-0.378c0-0.086-0.154-0.217-0.17-0.303
		c-0.015-0.073,0.058-0.229,0.038-0.302c-0.028-0.104-0.208-0.249-0.264-0.339c-0.041-0.066-0.059-0.259-0.133-0.285
		c-0.109-0.039-0.354,0.108-0.416,0.207c-0.062,0.102-0.055,0.371,0,0.473c0.056,0.106,0.406,0.146,0.397,0.266
		c-0.008,0.109-0.367,0.083-0.397,0.188c-0.03,0.109,0.152,0.315,0.246,0.379C64.772,141.903,65.047,141.982,65.16,141.928z"/>
	<path fill="#2BB673" d="M64.3,145.124c-0.104-0.025-0.209,0.247-0.265,0.34c-0.053,0.089-0.196,0.278-0.17,0.379
		c0.018,0.068,0.197,0.104,0.227,0.169s-0.06,0.226-0.019,0.284c0.062,0.09,0.329,0.188,0.416,0.123
		c0.053-0.039-0.031-0.207,0-0.265c0.041-0.075,0.25-0.111,0.283-0.189c0.046-0.106,0-0.375-0.084-0.453
		c-0.059-0.056-0.263,0.017-0.321-0.039C64.301,145.414,64.386,145.145,64.3,145.124z"/>
	<path fill="#2BB673" d="M64.073,150.483c0.044,0.087,0.23,0.248,0.321,0.218c0.096-0.031,0.051-0.32,0.132-0.379
		c0.056-0.039,0.212,0.03,0.274,0c0.083-0.038,0.231-0.19,0.236-0.283c0.006-0.092-0.164-0.226-0.199-0.312
		c-0.036-0.09,0.009-0.333-0.076-0.379c-0.107-0.058-0.332,0.184-0.454,0.18c-0.023,0-0.062-0.041-0.085-0.039
		c-0.041,0.01-0.076,0.106-0.113,0.125c-0.071,0.033-0.258-0.037-0.312,0.019c-0.061,0.063-0.045,0.271-0.01,0.349
		c0.039,0.09,0.254,0.166,0.293,0.257C64.106,150.294,64.045,150.429,64.073,150.483z"/>
	<path fill="#2BB673" d="M18.594,205.075c-0.047,0.037-0.183,0.06-0.208,0.114c-0.044,0.096,0.014,0.346,0.095,0.416
		c0.104,0.089,0.416,0.072,0.548,0.038c0.083-0.021,0.241-0.115,0.284-0.19c0.065-0.109,0.014-0.385,0.038-0.51
		c0.015-0.078,0.113-0.226,0.094-0.302c-0.018-0.071-0.148-0.166-0.208-0.21c-0.077-0.056-0.246-0.18-0.34-0.169
		c-0.09,0.01-0.283,0.136-0.284,0.227c0,0.098,0.296,0.148,0.303,0.247C18.923,204.853,18.687,205.004,18.594,205.075z"/>
	<path fill="#2BB673" d="M17.251,211.589c-0.061-0.037-0.052-0.226-0.113-0.264c-0.096-0.062-0.361-0.048-0.454,0.018
		c-0.091,0.064-0.083,0.337-0.161,0.416c-0.039,0.039-0.183,0.035-0.208,0.086c-0.05,0.097,0.039,0.336,0.104,0.426
		c0.062,0.083,0.263,0.258,0.359,0.217c0.097-0.043,0.05-0.316,0.084-0.416c0.019-0.056,0.085-0.154,0.104-0.208
		c0.012-0.034-0.002-0.123,0.028-0.143c0.061-0.038,0.229,0.019,0.284,0.066c0.057,0.048,0.05,0.235,0.113,0.274
		c0.083,0.051,0.312,0.032,0.388-0.029c0.078-0.061,0.172-0.291,0.123-0.378c-0.045-0.08-0.268-0.077-0.359-0.085
		C17.472,211.563,17.314,211.628,17.251,211.589z"/>
	<path fill="#2BB673" d="M20.56,203.317c0.052-0.021,0.035-0.172,0.076-0.207c0.069-0.064,0.301-0.023,0.36-0.096
		c0.059-0.072,0.082-0.309,0.019-0.379c-0.07-0.076-0.312-0.031-0.416-0.018c-0.063,0.008-0.185,0.055-0.246,0.075
		c-0.066,0.022-0.231,0.033-0.265,0.094c-0.042,0.077,0.021,0.273,0.076,0.341C20.231,203.214,20.458,203.358,20.56,203.317z"/>
	<path fill="#2BB673" d="M19.841,203.431c-0.093,0.002-0.179,0.227-0.265,0.266c-0.1,0.043-0.373-0.072-0.435,0.019
		c-0.051,0.073,0.042,0.286,0.113,0.34c0.072,0.055,0.28,0.062,0.359,0.019c0.049-0.025,0.065-0.163,0.114-0.189
		c0.083-0.044,0.315,0.089,0.378,0.02c0.045-0.049-0.006-0.206-0.038-0.264C20.033,203.569,19.919,203.429,19.841,203.431z"/>
	<path fill="#2BB673" d="M16.192,213.98c-0.049,0.041-0.212-0.02-0.255,0.028c-0.055,0.062-0.038,0.258,0,0.33
		c0.027,0.053,0.133,0.145,0.189,0.133c0.096-0.02,0.118-0.293,0.208-0.331c0.049-0.02,0.165,0.078,0.208,0.049
		c0.053-0.037,0.047-0.192,0.038-0.257c-0.007-0.051-0.042-0.16-0.085-0.188c-0.048-0.03-0.181-0.033-0.227,0
		C16.219,213.78,16.24,213.941,16.192,213.98z"/>
	<path fill="#2BB673" d="M17.591,206.664c-0.072,0.077-0.142,0.32-0.094,0.416c0.025,0.051,0.174,0.049,0.208,0.094
		c0.061,0.08-0.021,0.335,0.057,0.397c0.104,0.084,0.439,0.059,0.529-0.038c0.078-0.083-0.071-0.364,0-0.453
		c0.04-0.049,0.215-0.002,0.246-0.058c0.07-0.124-0.173-0.398-0.176-0.541c-0.003-0.1,0.163-0.308,0.1-0.385
		c-0.08-0.1-0.431-0.081-0.51,0.019c-0.066,0.083,0.131,0.326,0.076,0.416C17.967,206.628,17.669,206.581,17.591,206.664z"/>
	<path fill="#2BB673" d="M50.81,208.337c-0.057-0.076-0.327-0.025-0.359-0.113c-0.04-0.107,0.236-0.272,0.246-0.389
		c0.012-0.129-0.18-0.352-0.198-0.481c-0.013-0.089,0.034-0.269,0.038-0.359c0.004-0.098,0.049-0.31-0.009-0.387
		c-0.082-0.108-0.401-0.095-0.52-0.161c-0.102-0.058-0.238-0.275-0.35-0.312c-0.139-0.046-0.439,0.059-0.585,0.047
		c-0.14-0.01-0.42-0.178-0.548-0.122c-0.058,0.024-0.094,0.163-0.123,0.217c-0.054,0.103-0.204,0.3-0.208,0.417
		c-0.003,0.092,0.065,0.288,0.142,0.34c0.093,0.062,0.354-0.062,0.445,0c0.068,0.048,0.123,0.23,0.113,0.312
		c-0.013,0.104-0.237,0.244-0.236,0.35c0,0.075,0.11,0.2,0.17,0.246c0.08,0.059,0.279,0.111,0.378,0.121
		c0.097,0.012,0.307-0.09,0.388-0.037c0.062,0.041,0.032,0.231,0.085,0.284c0.087,0.087,0.369,0.075,0.473,0.142
		c0.125,0.08,0.25,0.424,0.397,0.443c0.08,0.013,0.236-0.098,0.274-0.168C50.866,208.64,50.868,208.415,50.81,208.337z"/>
	<path fill="#2BB673" d="M50.498,210.918c0.066-0.076,0.302-0.131,0.331-0.227c0.021-0.066-0.092-0.188-0.104-0.255
		c-0.013-0.079,0.062-0.248,0.019-0.312c-0.07-0.104-0.354-0.2-0.473-0.162c-0.116,0.04-0.222,0.297-0.274,0.408
		c-0.04,0.084-0.022,0.312-0.104,0.359c-0.212,0.119-0.723-0.153-0.945-0.257c-0.125-0.057-0.322-0.27-0.454-0.312
		c-0.126-0.038-0.399-0.021-0.529,0c-0.151,0.026-0.47,0.091-0.577,0.198c-0.08,0.082-0.182,0.328-0.142,0.435
		c0.042,0.112,0.321,0.164,0.407,0.246c0.092,0.089,0.294,0.299,0.284,0.426c-0.01,0.117-0.255,0.245-0.322,0.34
		c-0.064,0.091-0.23,0.291-0.198,0.398c0.037,0.121,0.386,0.141,0.444,0.254c0.056,0.108,0.015,0.379-0.047,0.482
		c-0.048,0.08-0.301,0.114-0.312,0.207c-0.009,0.078,0.138,0.197,0.208,0.228c0.067,0.03,0.226-0.03,0.293,0
		c0.093,0.044,0.17,0.272,0.264,0.312c0.13,0.057,0.427-0.012,0.567-0.037c0.181-0.031,0.589-0.059,0.708-0.198
		c0.102-0.117-0.039-0.51,0.076-0.614c0.064-0.06,0.271,0.029,0.35-0.011c0.119-0.06,0.292-0.288,0.331-0.415
		c0.069-0.227-0.121-0.712-0.075-0.945C50.253,211.314,50.398,211.033,50.498,210.918z"/>
	<path fill="#2BB673" d="M48.286,214.434c0.045-0.077,0.054-0.286,0-0.358c-0.034-0.046-0.173-0.031-0.218-0.066
		c-0.059-0.047-0.078-0.245-0.151-0.265c-0.062-0.016-0.186,0.077-0.217,0.133c-0.03,0.053,0.037,0.196,0,0.246
		c-0.045,0.061-0.247,0.023-0.293,0.084c-0.048,0.064-0.042,0.253,0,0.321c0.04,0.066,0.225,0.083,0.274,0.143
		c0.078,0.09,0.033,0.434,0.151,0.453c0.101,0.017,0.222-0.23,0.246-0.331c0.013-0.054-0.062-0.167-0.038-0.216
		C48.071,214.512,48.25,214.495,48.286,214.434z"/>
	<path fill="#2BB673" d="M42.566,268.544c-0.02-0.105,0.145-0.312,0.114-0.415c-0.034-0.115-0.335-0.204-0.36-0.323
		c-0.023-0.11,0.212-0.303,0.189-0.414c-0.02-0.103-0.275-0.185-0.302-0.284c-0.06-0.224,0.372-0.685,0.265-0.889
		c-0.055-0.106-0.393-0.049-0.454-0.151c-0.075-0.129,0.201-0.465,0.113-0.586c-0.086-0.12-0.459-0.15-0.586-0.076
		c-0.078,0.049-0.168,0.257-0.132,0.341c0.031,0.069,0.239,0.051,0.283,0.113c0.058,0.081,0.04,0.3,0.019,0.397
		c-0.026,0.124-0.138,0.362-0.227,0.454c-0.097,0.1-0.458,0.128-0.492,0.264c-0.029,0.122,0.28,0.291,0.284,0.417
		c0.005,0.164-0.194,0.488-0.34,0.566c-0.1,0.055-0.366-0.09-0.454-0.02c-0.09,0.073-0.148,0.365-0.076,0.454
		c0.09,0.11,0.462-0.077,0.567,0.019c0.112,0.104-0.02,0.487,0.076,0.605c0.079,0.099,0.402,0.066,0.472,0.17
		c0.094,0.138-0.101,0.519-0.019,0.662c0.065,0.112,0.334,0.295,0.454,0.246s0.051-0.411,0.151-0.491
		c0.096-0.077,0.392,0.034,0.492-0.039c0.137-0.1,0.286-0.455,0.264-0.623C42.854,268.817,42.591,268.667,42.566,268.544z"/>
	<path fill="#2BB673" d="M35.628,268.79c-0.129-0.029-0.41,0.031-0.529-0.025c-0.081-0.038-0.151-0.26-0.24-0.264
		c-0.136-0.008-0.417,0.229-0.403,0.364c0.009,0.087,0.273,0.095,0.302,0.176c0.052,0.147-0.261,0.434-0.214,0.581
		c0.036,0.112,0.275,0.239,0.391,0.266c0.093,0.02,0.314,0.008,0.377-0.064c0.064-0.073-0.049-0.313,0.013-0.392
		c0.059-0.071,0.293-0.027,0.366-0.087c0.092-0.077,0.245-0.328,0.201-0.441C35.867,268.837,35.699,268.806,35.628,268.79z"/>
	<path fill="#2BB673" d="M42.794,263.742c-0.007-0.063-0.056-0.202-0.113-0.228c-0.087-0.036-0.299,0.042-0.36,0.114
		c-0.067,0.08-0.113,0.328-0.056,0.415c0.064,0.1,0.356,0.199,0.454,0.133c0.043-0.029,0.01-0.157,0.019-0.208
		C42.747,263.911,42.8,263.8,42.794,263.742z"/>
	<path fill="#2BB673" d="M33.763,268.224c-0.142,0.025-0.347,0.295-0.491,0.301c-0.074,0.004-0.194-0.145-0.265-0.125
		c-0.09,0.026-0.119,0.271-0.202,0.315c-0.154,0.08-0.548-0.122-0.693-0.026c-0.073,0.049-0.167,0.25-0.126,0.328
		c0.026,0.049,0.166,0.024,0.214,0.051c0.053,0.028,0.122,0.138,0.176,0.164c0.072,0.035,0.236,0.041,0.316,0.051
		c0.147,0.016,0.453,0.089,0.592,0.037c0.096-0.037,0.203-0.236,0.29-0.29c0.113-0.069,0.418-0.062,0.504-0.164
		c0.094-0.108,0.171-0.45,0.089-0.567C34.107,268.216,33.864,268.204,33.763,268.224z"/>
	<path fill="#2BB673" d="M35.048,270.189c-0.07-0.016-0.194,0.096-0.265,0.113c-0.049,0.012-0.174-0.03-0.202,0.013
		c-0.048,0.073,0.061,0.269,0.126,0.328c0.076,0.066,0.301,0.146,0.391,0.102c0.082-0.043,0.154-0.251,0.139-0.342
		C35.226,270.333,35.118,270.205,35.048,270.189z"/>
	<path fill="#2BB673" d="M38.061,268.196c-0.068-0.045-0.269,0.021-0.315,0.09c-0.053,0.078,0.105,0.312,0.037,0.378
		c-0.082,0.079-0.365-0.138-0.454-0.063c-0.111,0.094-0.11,0.464-0.024,0.58c0.063,0.087,0.328,0.177,0.416,0.114
		c0.053-0.04-0.03-0.215,0.013-0.266c0.054-0.064,0.272-0.013,0.328-0.075c0.064-0.073,0.038-0.293,0.038-0.392
		C38.099,268.472,38.137,268.249,38.061,268.196z"/>
	<path fill="#2BB673" d="M42.945,209.245c-0.032-0.062-0.157-0.164-0.227-0.161c-0.049,0.003-0.107,0.103-0.152,0.122
		c-0.057,0.026-0.204,0.001-0.246,0.047c-0.063,0.072-0.062,0.291-0.028,0.379c0.021,0.054,0.121,0.131,0.17,0.161
		c0.075,0.045,0.244,0.121,0.331,0.113c0.062-0.005,0.168-0.084,0.217-0.123c0.054-0.043,0.195-0.142,0.18-0.208
		c-0.016-0.064-0.209-0.048-0.246-0.104C42.914,209.425,42.971,209.296,42.945,209.245z"/>
	<path fill="#2BB673" d="M42.785,213.489c-0.021-0.047-0.139-0.069-0.189-0.066c-0.112,0.007-0.346,0.102-0.406,0.198
		c-0.052,0.083-0.042,0.3,0,0.388c0.046,0.096,0.229,0.236,0.331,0.265c0.098,0.028,0.338,0.028,0.407-0.047
		c0.05-0.054,0.051-0.232,0.009-0.294c-0.042-0.062-0.283-0.094-0.274-0.122C42.671,213.782,42.82,213.567,42.785,213.489z"/>
	<path fill="#2BB673" d="M43.238,212.718c0.022-0.075-0.187-0.164-0.199-0.24c-0.008-0.051,0.098-0.146,0.076-0.193
		c-0.032-0.067-0.21-0.076-0.284-0.09c-0.046-0.01-0.143-0.027-0.189-0.016c-0.024,0.008-0.056,0.051-0.08,0.059
		c-0.045,0.011-0.147-0.048-0.185-0.02c-0.041,0.031-0.047,0.152-0.038,0.203c0.009,0.05,0.088,0.126,0.104,0.176
		c0.013,0.036-0.002,0.121,0.019,0.154c0.041,0.064,0.185,0.15,0.26,0.156c0.083,0.007,0.229-0.095,0.307-0.123
		C43.082,212.767,43.223,212.771,43.238,212.718z"/>
	<path fill="#2BB673" d="M43.484,211.513c0.053-0.054,0.071-0.238,0.028-0.302c-0.023-0.034-0.129-0.019-0.161-0.047
		c-0.049-0.044-0.052-0.204-0.104-0.246c-0.085-0.069-0.334-0.131-0.435-0.085c-0.057,0.025-0.073,0.18-0.123,0.217
		c-0.05,0.037-0.188,0.03-0.246,0.057c-0.067,0.031-0.212,0.109-0.236,0.18c-0.025,0.075,0.029,0.248,0.085,0.303
		c0.034,0.033,0.141,0.021,0.18,0.047c0.061,0.04,0.111,0.202,0.18,0.228c0.106,0.037,0.357-0.021,0.444-0.095
		c0.044-0.037,0.039-0.182,0.085-0.217C43.241,211.505,43.431,211.568,43.484,211.513z"/>
	<path fill="#2BB673" d="M46.348,200.831c0.1-0.094,0.208-0.389,0.17-0.52c-0.016-0.057-0.148-0.102-0.18-0.152
		c-0.061-0.096-0.038-0.357-0.113-0.443c-0.052-0.061-0.214-0.131-0.293-0.123c-0.096,0.009-0.263,0.133-0.322,0.207
		c-0.036,0.045-0.088,0.162-0.076,0.219c0.012,0.052,0.137,0.1,0.151,0.151c0.024,0.087-0.033,0.276-0.085,0.349
		c-0.062,0.09-0.327,0.135-0.359,0.237c-0.045,0.142,0.096,0.47,0.217,0.557c0.135,0.097,0.547,0.148,0.662,0.028
		c0.077-0.08-0.103-0.353-0.038-0.443C46.123,200.842,46.298,200.878,46.348,200.831z"/>
	<path fill="#2BB673" d="M18.07,238.554c-0.064,0.014-0.086,0.184-0.138,0.227c-0.112,0.088-0.401,0.193-0.542,0.176
		c-0.092-0.012-0.27-0.121-0.314-0.202c-0.058-0.104,0.097-0.409,0-0.479c-0.089-0.064-0.307,0.141-0.416,0.14
		c-0.067-0.001-0.213-0.034-0.252-0.088c-0.087-0.12-0.035-0.446-0.012-0.593c0.011-0.079,0.128-0.228,0.101-0.303
		c-0.034-0.092-0.255-0.151-0.34-0.202c-0.104-0.06-0.296-0.227-0.416-0.238c-0.092-0.011-0.282,0.054-0.353,0.113
		c-0.066,0.054-0.171,0.216-0.164,0.302c0.012,0.14,0.296,0.311,0.341,0.441c0.068,0.199,0.132,0.68,0,0.844
		c-0.07,0.09-0.351,0.033-0.441,0.102c-0.095,0.071-0.201,0.301-0.228,0.416c-0.032,0.138-0.039,0.44,0.025,0.566
		c0.053,0.104,0.308,0.189,0.366,0.291c0.06,0.104,0.121,0.372,0.063,0.478c-0.075,0.138-0.493,0.128-0.567,0.265
		c-0.062,0.116-0.014,0.422,0.076,0.518c0.066,0.068,0.327-0.006,0.378,0.076c0.021,0.032-0.008,0.125-0.039,0.151
		c-0.067,0.056-0.277-0.021-0.352,0.024c-0.061,0.037-0.172,0.173-0.151,0.239c0.036,0.118,0.343,0.146,0.454,0.202
		c0.09,0.046,0.322,0.104,0.353,0.202c0.043,0.14-0.124,0.459-0.252,0.529c-0.111,0.061-0.429-0.166-0.504-0.063
		c-0.08,0.108,0.133,0.395,0.227,0.492c0.055,0.055,0.22,0.086,0.277,0.139c0.097,0.087,0.262,0.311,0.278,0.44
		c0.019,0.159-0.152,0.454-0.202,0.605c-0.047,0.145-0.277,0.456-0.189,0.579c0.077,0.109,0.413-0.051,0.53,0.013
		c0.059,0.033,0.088,0.2,0.15,0.227c0.126,0.056,0.463,0.024,0.542-0.087c0.083-0.119-0.104-0.424-0.101-0.567
		c0.003-0.226,0.016-0.738,0.188-0.882c0.085-0.072,0.349-0.074,0.441-0.014c0.087,0.058,0.074,0.32,0.151,0.391
		c0.164,0.15,0.648,0.317,0.857,0.24c0.113-0.043,0.301-0.289,0.265-0.404c-0.053-0.164-0.546-0.108-0.643-0.252
		c-0.08-0.116-0.101-0.467,0-0.567c0.107-0.105,0.485,0.092,0.604,0c0.057-0.043,0.024-0.227,0.076-0.277
		c0.048-0.047,0.222-0.009,0.264-0.062c0.047-0.059,0.038-0.237,0-0.302c-0.04-0.071-0.198-0.148-0.277-0.164
		c-0.14-0.029-0.459,0.169-0.567,0.075c-0.068-0.06-0.059-0.297,0-0.365c0.064-0.075,0.292-0.056,0.391-0.063
		c0.111-0.01,0.367,0.082,0.442,0c0.067-0.074,0.046-0.348-0.038-0.402c-0.14-0.095-0.488,0.267-0.643,0.2
		c-0.132-0.057-0.288-0.378-0.252-0.516c0.03-0.116,0.335-0.172,0.391-0.278c0.064-0.126-0.061-0.438,0-0.567
		c0.049-0.106,0.309-0.197,0.365-0.302c0.07-0.133,0.016-0.452,0.063-0.592c0.029-0.089,0.18-0.225,0.189-0.315
		c0.009-0.095-0.067-0.281-0.126-0.354C18.338,238.68,18.164,238.53,18.07,238.554z"/>
	<path fill="#2BB673" d="M40.809,258.821c0.106,0.04,0.356,0.008,0.454-0.051c0.064-0.041,0.188-0.182,0.164-0.254
		c-0.038-0.112-0.356-0.092-0.454-0.164c-0.078-0.056-0.154-0.258-0.24-0.302c-0.062-0.031-0.21,0.006-0.277-0.012
		c-0.089-0.024-0.237-0.153-0.328-0.164c-0.051-0.007-0.186,0-0.202,0.05c-0.03,0.093,0.229,0.207,0.252,0.303
		c0.017,0.069-0.101,0.218-0.063,0.277c0.071,0.111,0.403,0.046,0.517,0.113C40.689,258.653,40.747,258.796,40.809,258.821z"/>
	<path fill="#2BB673" d="M38.527,259.563c-0.048-0.055,0.007-0.244-0.05-0.289c-0.052-0.043-0.211-0.025-0.265,0.012
		c-0.062,0.043-0.122,0.202-0.114,0.277c0.007,0.061,0.118,0.145,0.139,0.203c0.024,0.067-0.026,0.238,0.025,0.289
		c0.061,0.06,0.262,0.06,0.34,0.024c0.115-0.05,0.351-0.271,0.315-0.39C38.889,259.591,38.594,259.642,38.527,259.563z"/>
	<path fill="#2BB673" d="M34.142,253.955c-0.086-0.028-0.292,0.038-0.341,0.113c-0.05,0.077-0.027,0.3,0.038,0.364
		c0.042,0.044,0.187-0.001,0.239,0.026c0.081,0.042,0.15,0.295,0.24,0.277c0.095-0.02,0.14-0.271,0.126-0.365
		C34.424,254.243,34.264,253.994,34.142,253.955z"/>
	<path fill="#2BB673" d="M37.406,255.605c0.091-0.077,0.404,0.095,0.479,0c0.028-0.035-0.003-0.147-0.038-0.177
		c-0.056-0.045-0.22,0.02-0.29,0c-0.088-0.023-0.227-0.164-0.315-0.188c-0.097-0.027-0.315,0.049-0.403,0
		c-0.064-0.037-0.079-0.248-0.152-0.253c-0.098-0.008-0.159,0.269-0.251,0.303c-0.081,0.03-0.271-0.103-0.34-0.05
		c-0.1,0.073-0.137,0.383-0.075,0.49c0.044,0.081,0.339,0.139,0.314,0.189c-0.025,0.051-0.159,0.426-0.075,0.529
		c0.089,0.111,0.452,0.147,0.566,0.063c0.1-0.072,0.016-0.392,0.102-0.479c0.077-0.078,0.354-0.02,0.428-0.101
		C37.411,255.872,37.343,255.659,37.406,255.605z"/>
	<path fill="#2BB673" d="M17.226,247.879c-0.079-0.032-0.274-0.005-0.34,0.05c-0.046,0.039-0.027,0.192-0.075,0.229
		c-0.11,0.079-0.437-0.084-0.542,0c-0.109,0.086-0.188,0.417-0.126,0.542c0.059,0.117,0.365,0.278,0.479,0.215
		c0.105-0.061-0.029-0.4,0.062-0.48c0.083-0.072,0.344,0.054,0.441,0c0.096-0.051,0.242-0.257,0.239-0.364
		C17.364,248.01,17.281,247.901,17.226,247.879z"/>
	<path fill="#2BB673" d="M19.571,236.687c-0.042-0.023-0.145-0.001-0.189,0.014c-0.074,0.023-0.232,0.093-0.265,0.162
		c-0.063,0.133-0.033,0.483,0.075,0.581c0.077,0.07,0.326,0.066,0.416,0.012c0.084-0.05,0.177-0.254,0.176-0.352
		C19.784,236.986,19.672,236.745,19.571,236.687z"/>
	<path fill="#2BB673" d="M14.68,220.44c0.053,0.096,0.319,0.096,0.429,0.1c0.124,0.008,0.382-0.004,0.492-0.062
		c0.092-0.049,0.18-0.273,0.277-0.315c0.083-0.034,0.293,0.07,0.365,0.013c0.124-0.096,0.063-0.472,0.126-0.617
		c0.047-0.109,0.293-0.271,0.277-0.391c-0.019-0.143-0.39-0.231-0.441-0.365c-0.047-0.122,0.124-0.396,0.076-0.517
		c-0.041-0.101-0.234-0.248-0.34-0.265c-0.105-0.018-0.299,0.121-0.404,0.138c-0.149,0.026-0.472-0.071-0.605,0
		c-0.072,0.041-0.156,0.198-0.176,0.278c-0.052,0.201,0.033,0.623,0.05,0.832c0.013,0.154,0.081,0.463,0.063,0.617
		C14.853,220.031,14.609,220.312,14.68,220.44z"/>
	<path fill="#2BB673" d="M3.091,226.856c-0.083-0.033-0.263,0.051-0.341,0.094c-0.1,0.056-0.321,0.191-0.34,0.303
		c-0.029,0.164,0.307,0.419,0.321,0.586c0.011,0.13-0.229,0.376-0.17,0.491c0.094,0.186,0.627,0.37,0.794,0.246
		c0.106-0.079,0.041-0.403,0-0.529c-0.033-0.1-0.256-0.235-0.246-0.341c0.01-0.109,0.307-0.192,0.321-0.302
		C3.452,227.244,3.241,226.915,3.091,226.856z"/>
	<path fill="#2BB673" d="M8.44,211.769c-0.075-0.049-0.271,0.021-0.359,0c-0.133-0.032-0.364-0.295-0.491-0.246
		c-0.089,0.035-0.062,0.295-0.133,0.359c-0.072,0.064-0.327,0.012-0.378,0.095c-0.06,0.101,0.165,0.349,0.113,0.454
		c-0.061,0.125-0.443,0.104-0.51,0.227c-0.064,0.116-0.015,0.431,0.076,0.528c0.072,0.078,0.33,0.033,0.416,0.095
		c0.067,0.049,0.105,0.233,0.17,0.284c0.136,0.106,0.509,0.288,0.662,0.208c0.114-0.06,0.203-0.374,0.151-0.492
		c-0.045-0.1-0.327-0.104-0.397-0.188c-0.044-0.053-0.07-0.195-0.076-0.266c-0.005-0.07-0.015-0.234,0.039-0.282
		c0.108-0.099,0.484,0.086,0.585-0.02c0.053-0.054-0.046-0.242,0-0.302c0.048-0.062,0.269-0.006,0.303-0.077
		C8.657,212.054,8.528,211.824,8.44,211.769z"/>
	<path fill="#2BB673" d="M21.739,239.46c-0.059-0.038-0.216-0.038-0.265-0.088c-0.057-0.058-0.041-0.251-0.101-0.303
		c-0.043-0.037-0.171-0.021-0.227-0.039c-0.188-0.057-0.582-0.184-0.718-0.327c-0.129-0.136-0.092-0.715-0.278-0.692
		c-0.24,0.028-0.182,0.72-0.138,0.957c0.03,0.167,0.25,0.442,0.328,0.594c0.037,0.071,0.075,0.24,0.139,0.289
		c0.11,0.084,0.44,0.009,0.542,0.102c0.075,0.067,0.137,0.291,0.114,0.391c-0.028,0.117-0.281,0.242-0.328,0.353
		c-0.041,0.096-0.005,0.313-0.025,0.416c-0.028,0.146-0.197,0.417-0.188,0.566c0.005,0.098,0.125,0.265,0.164,0.354
		c0.051,0.118,0.085,0.402,0.189,0.479c0.092,0.066,0.356-0.033,0.454,0.024c0.057,0.034,0.074,0.215,0.139,0.227
		c0.106,0.02,0.31-0.161,0.34-0.264c0.059-0.206-0.302-0.593-0.291-0.808c0.011-0.2,0.346-0.518,0.353-0.719
		c0.005-0.148-0.242-0.405-0.227-0.554c0.018-0.167,0.388-0.388,0.378-0.555C22.083,239.729,21.85,239.534,21.739,239.46z"/>
	<path fill="#2BB673" d="M22.52,237.09c-0.011-0.081-0.103-0.242-0.177-0.276c-0.072-0.033-0.247-0.002-0.315,0.037
		c-0.132,0.076-0.231,0.42-0.366,0.491c-0.047,0.026-0.175-0.023-0.214,0.013c-0.109,0.103,0.032,0.489-0.076,0.594
		c-0.1,0.096-0.476-0.065-0.554,0.05c-0.055,0.081,0.05,0.303,0.113,0.378c0.094,0.109,0.404,0.163,0.517,0.252
		c0.081,0.063,0.171,0.27,0.265,0.316c0.093,0.045,0.345,0.088,0.416,0.012c0.093-0.099-0.097-0.414-0.05-0.542
		c0.042-0.118,0.317-0.233,0.353-0.353c0.03-0.102-0.093-0.311-0.088-0.417C22.351,237.499,22.538,237.234,22.52,237.09z"/>
	<path fill="#2BB673" d="M6.701,218.965c-0.077,0.004-0.258,0.043-0.29,0.113c-0.046,0.105,0.202,0.321,0.164,0.43
		c-0.029,0.087-0.294,0.1-0.314,0.188c-0.022,0.091,0.127,0.258,0.201,0.316c0.063,0.049,0.231,0.137,0.302,0.1
		c0.105-0.055,0.051-0.373,0.139-0.454c0.045-0.04,0.198-0.006,0.239-0.049c0.084-0.093,0.13-0.389,0.063-0.492
		C7.134,219.007,6.833,218.96,6.701,218.965z"/>
	<path fill="#2BB673" d="M28.936,243.317c-0.13-0.124-0.553-0.033-0.719,0.037c-0.063,0.027-0.178,0.125-0.201,0.189
		c-0.043,0.119-0.019,0.406,0.063,0.504c0.077,0.092,0.362,0.062,0.454,0.139c0.144,0.118,0.178,0.592,0.354,0.655
		c0.12,0.044,0.439-0.066,0.479-0.188c0.059-0.188-0.373-0.469-0.429-0.656C28.887,243.834,29.059,243.434,28.936,243.317z"/>
	<path fill="#2BB673" d="M31.229,250.262c-0.084-0.13-0.142-0.45-0.227-0.58c-0.047-0.07-0.215-0.157-0.239-0.239
		c-0.062-0.199,0.257-0.639,0.15-0.818c-0.085-0.147-0.526-0.093-0.643-0.215c-0.058-0.062-0.05-0.252-0.088-0.328
		c-0.037-0.072-0.125-0.229-0.202-0.253c-0.051-0.015-0.175,0.019-0.202,0.064c-0.087,0.142,0.139,0.49,0.114,0.655
		c-0.029,0.183-0.332,0.471-0.34,0.655c-0.013,0.255,0.195,0.767,0.377,0.946c0.118,0.113,0.493,0.117,0.618,0.227
		c0.13,0.112,0.205,0.484,0.328,0.604c0.093,0.091,0.344,0.288,0.466,0.239c0.152-0.061,0.249-0.458,0.214-0.617
		C31.531,250.487,31.293,250.36,31.229,250.262z"/>
	<path fill="#2BB673" d="M29.115,242.218c-0.043-0.056-0.21-0.096-0.274-0.066c-0.104,0.047-0.228,0.293-0.208,0.406
		c0.017,0.095,0.23,0.184,0.284,0.264c0.064,0.099,0.078,0.355,0.161,0.436c0.048,0.047,0.196,0.117,0.255,0.085
		c0.082-0.044,0.077-0.268,0.094-0.358c0.019-0.098,0.097-0.311,0.047-0.397c-0.048-0.086-0.306-0.078-0.359-0.16
		C29.087,242.382,29.147,242.258,29.115,242.218z"/>
	<path fill="#2BB673" d="M29.342,243.748c0.042,0.102,0.289,0.195,0.397,0.179c0.069-0.008,0.179-0.119,0.217-0.179
		c0.043-0.064,0.098-0.225,0.085-0.302c-0.007-0.046-0.081-0.111-0.104-0.151c-0.027-0.048-0.041-0.188-0.094-0.198
		c-0.128-0.025-0.314,0.241-0.388,0.35C29.41,243.513,29.312,243.674,29.342,243.748z"/>
	<path fill="#2BB673" d="M25.145,245.195c-0.065-0.114-0.021-0.429-0.124-0.511c-0.075-0.061-0.309-0.067-0.388-0.009
		c-0.067,0.05-0.105,0.237-0.094,0.321c0.02,0.15,0.369,0.374,0.321,0.52c-0.037,0.113-0.373,0.084-0.444,0.18
		c-0.063,0.086-0.09,0.332-0.038,0.425c0.049,0.088,0.26,0.169,0.359,0.179c0.087,0.011,0.256-0.062,0.34-0.083
		c0.095-0.026,0.318-0.028,0.378-0.105c0.093-0.12,0.067-0.464,0.01-0.604C25.423,245.403,25.2,245.291,25.145,245.195z"/>
	<path fill="#2BB673" d="M31.61,248.04c0.061-0.104,0.368-0.243,0.454-0.161c0.052,0.05-0.085,0.203-0.085,0.275
		c0.001,0.106,0.042,0.351,0.132,0.405c0.041,0.026,0.158,0.009,0.189-0.028c0.077-0.089,0-0.354,0-0.472c0-0.1,0.068-0.326,0-0.396
		c-0.084-0.09-0.393,0.044-0.491-0.029c-0.079-0.059-0.055-0.309-0.133-0.369c-0.115-0.088-0.44,0.01-0.577-0.037
		c-0.07-0.025-0.174-0.148-0.246-0.17c-0.083-0.026-0.265-0.021-0.351,0c-0.099,0.021-0.32,0.088-0.368,0.18
		c-0.051,0.098,0.048,0.326,0.069,0.434c0.007,0.035,0.009,0.111,0.033,0.139c0.055,0.062,0.266,0.048,0.314,0.117
		c0.026,0.037-0.028,0.148,0,0.184c0.056,0.072,0.28,0.03,0.35,0.088c0.081,0.068,0.098,0.31,0.172,0.384
		c0.081,0.078,0.304,0.201,0.414,0.176c0.075-0.016,0.186-0.151,0.208-0.227C31.731,248.412,31.548,248.147,31.61,248.04z"/>
</g>
</svg>
